<svg width="113" height="148" viewBox="0 0 113 148" fill="none" xmlns="http://www.w3.org/2000/svg">
    <path d="M61 42H55.5M61 42L43.5 61M61 42V49M75 91.5H81V77.5M71 91.5H66M62 91.5H57.5M52.5 91.5H47M43 91.5H40V77.5M40 77.5V76M40 77.5H45.5M81 77.5H76.5M81 77.5V73M43.5 47.5V42H49M43.5 47.5L49 42M43.5 47.5V54M49 42H55.5M43.5 54L55.5 42M43.5 54V61M43.5 61V66.5M43.5 66.5V68H40V76M43.5 66.5L61 49M61 49V55M40 76L61 55M61 55V62M45.5 77.5L61 62M45.5 77.5H52.5M61 62V68H62M52.5 77.5L62 68M52.5 77.5H59M62 68H68.5M59 77.5L68.5 68M59 77.5H64.5M68.5 68H74M64.5 77.5L74 68M64.5 77.5H71M74 68H80.5M71 77.5L80.5 68M71 77.5H76.5M80.5 68H81V73M76.5 77.5L81 73" stroke="#1F1F22" stroke-width="0.9"/>
    <rect x="13.45" y="11.45" width="84.1" height="119.1" stroke="#1F1F22" stroke-width="0.9"/>
    <path d="M33 54.45H33.45V54V32.5V15.45H93.55V126.55H17.45V32.95H19.5552L19.7947 53.55H17.5V54.45H20.25H23H26H29.5H33ZM19.55 32.05H17.45V15.45H19.55V32.05ZM20.45 32.05V15.45H22.55V32.05H20.45ZM23.45 32.05V15.45H25.55V32.05H23.45ZM26.45 32.05V15.45H29.05V32.05H26.45ZM29.95 32.05V15.45H32.55V32.05H29.95ZM29.95 32.95H32.55V53.55H29.95V32.95ZM29.05 32.95V53.55H26.45V32.95H29.05ZM25.55 32.95V53.55H23.45V32.95H25.55ZM22.55 32.95V53.55H20.6948L20.4553 32.95H22.55Z" stroke="#1F1F22" stroke-width="0.9"/>

    <g class='svgAnime rotate(19.25deg)'>
        <path d="M91 19.5C90.2 18.7 86.3333 19.1667 84.5 19.5C80.5246 21.1564 73.6848 26.9284 77.9201 36.816C77.9716 36.9363 78.0376 37.0543 78.1139 37.1607C79.1544 38.611 80.2807 39.6926 81.4508 40.4701L81.9324 37.5C79.4894 34.5417 76.6792 27.402 84.6564 22.2179C84.8783 22.0737 85.1432 21.9756 85.4054 21.94C96.7704 20.3965 98.253 31.9966 94.3103 36.7047C93.8381 37.2686 93.5425 37.9921 93.6745 38.7156L94 40.5C96.6605 39.9535 97.3702 37.2595 98 36C99.99 32.0199 100 23.0897 91.134 19.5528C91.0939 19.566 91.0494 19.5494 91 19.5Z" fill="#F5A172"/>
        <path fill-rule="evenodd" clip-rule="evenodd" d="M91.134 19.5528C91.6537 19.3812 91.4165 14.1856 91.1414 10.3334C91.0673 9.29583 90.1999 8.5 89.1597 8.5H86.5C85.3954 8.5 84.5 9.39543 84.5 10.5V19.5C86.3333 19.1667 90.2 18.7 91 19.5C91.0494 19.5494 91.0939 19.566 91.134 19.5528ZM99.7351 79L94 40.5L93.3114 36.3681C93.1367 35.3203 92.1735 34.5918 91.1177 34.7091L90.568 34.7702C89.4393 34.8956 88.6414 35.9345 88.8114 37.0573L89.0694 38.762L89.5342 41.833L95.1595 79L102.306 126.216C102.414 126.933 103.07 127.437 103.79 127.357L104.932 127.23C106.061 127.104 106.859 126.066 106.689 124.943L99.7351 79ZM86.3902 42.1178L80.6398 79L73.3446 125.79C73.1608 126.969 71.9929 127.725 70.8422 127.412L70.7925 127.398L69.236 126.973C68.249 126.704 67.6243 125.734 67.788 124.724L75.2027 79L81.4508 40.4701L81.9324 37.5L82.1679 36.0479C82.3493 34.9292 83.4231 34.1846 84.5344 34.4069L85.6209 34.6242C86.6714 34.8343 87.3698 35.8349 87.2048 36.8934L86.8929 38.8935L86.3902 42.1178Z" fill="#F8CFB9"/>
        <path d="M89.0694 38.762C88.4126 38.8497 87.0579 38.9987 86.8929 38.8935L86.3902 42.1178C87.4583 42.1759 88.5158 42.0663 89.5342 41.833L89.0694 38.762Z" fill="#F5A172"/>
        <path d="M84.5 19.5C86.3333 19.1667 90.2 18.7 91 19.5M84.5 19.5C80.5246 21.1564 73.6848 26.9284 77.9201 36.816M84.5 19.5V10.5M91 19.5C91.0494 19.5494 91.0939 19.566 91.134 19.5528M91 19.5C91.0449 19.5175 91.0895 19.5351 91.134 19.5528M81.9324 37.5L82.1679 36.0479C82.3493 34.9292 83.4231 34.1846 84.5344 34.4069L85.6209 34.6242C86.6714 34.8343 87.3698 35.8349 87.2048 36.8934L86.8929 38.8935M81.9324 37.5C79.4894 34.5417 76.6792 27.402 84.6564 22.2179C84.8783 22.0737 85.1432 21.9756 85.4054 21.94C96.7704 20.3965 98.253 31.9966 94.3103 36.7047C93.8381 37.2686 93.5425 37.9921 93.6745 38.7156L94 40.5M81.9324 37.5L81.4508 40.4701M89.0694 38.762L88.8114 37.0573C88.6414 35.9345 89.4393 34.8956 90.568 34.7702L91.1177 34.7091C92.1735 34.5918 93.1367 35.3203 93.3114 36.3681L94 40.5M89.0694 38.762C88.4126 38.8497 87.0579 38.9987 86.8929 38.8935M89.0694 38.762L89.5342 41.833M86.8929 38.8935L86.3902 42.1178M81.4508 40.4701L75.2027 79M81.4508 40.4701C80.2807 39.6926 79.1544 38.611 78.1139 37.1607M86.3902 42.1178C87.4583 42.1759 88.5158 42.0663 89.5342 41.833M86.3902 42.1178L80.6398 79M89.5342 41.833L95.1595 79M94 40.5C96.6605 39.9535 97.3702 37.2595 98 36C99.99 32.0199 100 23.0897 91.134 19.5528M94 40.5L99.7351 79M103.79 127.357V127.357C103.07 127.437 102.414 126.933 102.306 126.216V126.216M103.79 127.357L104.5 133.5M103.79 127.357L104.932 127.23M103.79 127.357C103.07 127.437 102.414 126.933 102.306 126.216M70.7925 127.398L69.5 133M70.7925 127.398L70.8422 127.412M70.7925 127.398L69.236 126.973M75.2027 79H65.5M75.2027 79L67.788 124.724M80.6398 79H95.1595M80.6398 79L73.3446 125.79M95.1595 79L102.306 126.216M99.7351 79H109M99.7351 79L106.689 124.943M91.1414 10.3334C91.4165 14.1856 91.6537 19.3812 91.134 19.5528M91.1414 10.3334C91.0673 9.29583 90.1999 8.5 89.1597 8.5M91.1414 10.3334V10.3334C91.0674 9.29664 90.1991 8.5 89.1597 8.5V8.5M106.689 124.943C106.859 126.066 106.061 127.104 104.932 127.23M106.689 124.943V124.943C106.859 126.066 106.061 127.104 104.932 127.23V127.23M73.3446 125.79C73.1608 126.969 71.9929 127.725 70.8422 127.412M73.3446 125.79V125.79C73.1608 126.969 71.9929 127.725 70.8422 127.412V127.412M69.236 126.973C68.249 126.704 67.6243 125.734 67.788 124.724M69.236 126.973V126.973C68.249 126.704 67.6243 125.734 67.788 124.724V124.724M78.1139 37.1607C78.0376 37.0543 77.9716 36.9363 77.9201 36.816M78.1139 37.1607V37.1607C78.0376 37.0543 77.9732 36.9398 77.9216 36.8194C77.9211 36.8183 77.9206 36.8171 77.9201 36.816M84.5 10.5C84.5 9.39543 85.3954 8.5 86.5 8.5M84.5 10.5V10.5C84.5 9.39543 85.3954 8.5 86.5 8.5V8.5M86.5 8.5H89.1597" stroke="#1F1F22" stroke-width="0.9"/>
    </g>

    <g class='svgAnime translateY(-28.5px)'>
        <path fill-rule="evenodd" clip-rule="evenodd" d="M53.9603 118.135L56.7726 120.446L63.706 112.009L55.1851 103.918L48.5167 97.5866L42.2187 91.6065L35.9206 85.6264L29.6226 79.6463L17.7676 68.3897L10.55 76.4151L13.9307 79.5489C7.72783 84.6448 -1.62785 99.7791 13.8635 117.275C29.3548 134.771 47.0494 125.138 53.9603 118.135ZM19.0167 85.1509L46.3763 112.436C42.3673 116.016 30.9051 124.228 20.0339 113.012C9.4506 102.092 15.0701 89.7009 19.0167 85.1509Z" fill="#F5A172"/>
        <path d="M55.1851 103.918L63.706 112.009L56.7726 120.446L53.9603 118.135C47.0494 125.138 29.3548 134.771 13.8635 117.275C-1.62785 99.7791 7.72783 84.6448 13.9307 79.5489L10.55 76.4151L17.7676 68.3897L29.6226 79.6463M55.1851 103.918L51.9783 107.35M55.1851 103.918L48.5167 97.5866M48.5167 97.5866L47.5281 98.2696M48.5167 97.5866L42.2187 91.6065M42.2187 91.6065L39.4354 95.3527M42.2187 91.6065L35.9206 85.6264M35.9206 85.6264L35.1422 87.3797M35.9206 85.6264L29.6226 79.6463M29.6226 79.6463L26.4811 83.6401M46.3763 112.436L19.0167 85.1509C15.0701 89.7009 9.4506 102.092 20.0339 113.012C30.9051 124.228 42.3673 116.016 46.3763 112.436Z" stroke="#1F1F22" stroke-width="0.9"/>
    </g>
</svg>
