<svg width="113" height="148" viewBox="0 0 113 148" fill="none" xmlns="http://www.w3.org/2000/svg">
<path d="M24.7251 30.4191C22.4323 34.8598 23.4829 37.6397 28.7881 38.0174C32.4905 36.8933 33.3492 33.7936 33.0778 31.505C32.9575 30.4906 32.6152 29.6355 32.2 29.1826C31.1652 28.0534 27.0179 25.9785 24.7251 30.4191Z" fill="#73DD44"/>
<path d="M44.9995 2.10622C42.3072 3.3885 38.0641 6.87185 42.63 10.5471C44.2826 10.7168 48.0649 10.6375 49.9736 8.96302C50.6567 7.92191 51.0945 7.02625 51.3335 6.25788C51.391 5.83888 51.4651 5.48242 51.5496 5.19039C51.8016 1.97487 47.693 1.69845 44.9995 2.10622Z" fill="#73DD44"/>
<path d="M75.9662 6.28759C71.3559 5.64725 64.2548 6.822 67.851 12.1345C69.2309 13.3339 72.8246 15.4174 76.1605 14.1567C77.1082 13.6623 77.839 13.1727 78.3871 12.6931C81.676 9.81578 78.8391 7.58457 75.9662 6.28759Z" fill="#73DD44"/>
<path d="M103.097 23.4353C109.135 21.5503 105.062 16.026 102.406 14.2515C100.4 12.9115 97.9104 13.2888 96.4996 15.8956C96.6708 18.7839 98.0204 24.0089 101.991 23.6608C102.339 23.6303 102.707 23.5569 103.097 23.4353Z" fill="#73DD44"/>
<path d="M110.731 49.9375C112.066 45.0645 105.316 40.8644 103.108 44.4788C103.081 44.5225 103.053 44.5664 103.024 44.6104C100.406 48.8001 103.716 53.3993 105.611 54.255C107.527 55.1196 109.395 54.8105 110.731 49.9375Z" fill="#73DD44"/>
<path d="M58.7508 40.5927C58.4708 44.405 59.5957 51.234 66.3351 48.0514C74.7595 44.0733 64.3406 33.3174 58.7508 40.5927Z" fill="#C6F0B3"/>
<path fill-rule="evenodd" clip-rule="evenodd" d="M42.63 10.5471C50.7484 16.0567 52.6071 27.4891 52.5216 32.5167C48.0885 34.2471 44.2535 36.9665 41.0699 40.0427C39.8464 41.2249 38.7191 42.4597 37.6911 43.7113C35.1662 46.7852 33.0146 50.6455 31.7312 53.3902C27.1038 72.2902 28.9235 107.184 73.2211 95.5602C83.0438 97.1931 101.184 73.6248 95.7575 53.8246C99.603 52.8606 103.666 53.5937 105.611 54.255C103.716 53.3993 100.406 48.8001 103.024 44.6104C101.757 46.5019 97.9839 48.6434 94.5149 50.2775C93.0288 46.8311 90.7503 43.5499 87.5045 40.5959C87.4958 40.5879 87.487 40.58 87.4783 40.572C87.3457 40.4517 87.2116 40.3319 87.0759 40.2127C85.7089 39.012 84.1778 37.8676 82.4702 36.7908C82.0764 36.5424 81.6731 36.2976 81.2604 36.0566C78.1091 34.2162 75.0809 32.8897 72.1824 32.0007C70.1021 31.3627 68.0886 30.9501 66.1442 30.7346C63.3794 30.4282 60.7543 30.5204 58.2758 30.9301C51.6362 18.6513 50.8232 9.98299 51.3335 6.25788C51.0945 7.02625 50.6567 7.92191 49.9736 8.96302C48.0649 10.6375 44.2826 10.7168 42.63 10.5471ZM58.7508 40.5927C58.4708 44.405 59.5957 51.234 66.3351 48.0514C74.7595 44.0733 64.3406 33.3174 58.7508 40.5927ZM76.1521 61.4175C74.536 64.1463 72.9301 69.7041 79.4353 70.1048C87.0334 66.0418 82.5846 60.5749 76.1521 61.4175Z" fill="#C6F0B3"/>
<path d="M28.7881 38.0174C33.0323 38.3196 36.4918 41.9393 37.6911 43.7113C38.7191 42.4597 39.8464 41.2249 41.0699 40.0427C38.6419 38.5218 33.6443 34.6851 33.0778 31.505C33.3492 33.7936 32.4905 36.8933 28.7881 38.0174Z" fill="#C6F0B3"/>
<path d="M67.851 12.1345C71.4473 17.447 68.2116 26.7481 66.1442 30.7346C68.0886 30.9501 70.1021 31.3627 72.1824 32.0007C69.7135 26.3089 75.2902 16.7574 78.3871 12.6931C77.839 13.1727 77.1082 13.6623 76.1605 14.1567C72.8246 15.4174 69.2309 13.3339 67.851 12.1345Z" fill="#C6F0B3"/>
<path d="M87.0759 40.2127C87.2116 40.3319 87.3457 40.4517 87.4783 40.572C87.487 40.58 87.4958 40.5879 87.5045 40.5959C85.6134 35.5921 96.4269 27.1516 101.991 23.6608C98.0204 24.0089 96.6708 18.7839 96.4996 15.8956C96.0423 16.7405 95.6882 17.8958 95.5208 19.1504C94.9408 23.4997 86.5787 32.7229 82.4702 36.7908C84.1778 37.8676 85.7089 39.012 87.0759 40.2127Z" fill="#C6F0B3"/>
<path fill-rule="evenodd" clip-rule="evenodd" d="M58.7508 40.5927C58.4708 44.405 59.5957 51.234 66.3351 48.0514C74.7595 44.0733 64.3406 33.3174 58.7508 40.5927Z" fill="#73DD44"/>
<path d="M76.1521 61.4175C74.536 64.1463 72.9301 69.7041 79.4353 70.1048C87.0334 66.0418 82.5846 60.5749 76.1521 61.4175Z" fill="#73DD44"/>
<path d="M52.5216 32.5167C52.6071 27.4891 50.7484 16.0567 42.63 10.5471M52.5216 32.5167C48.0885 34.2471 44.2535 36.9665 41.0699 40.0427M52.5216 32.5167C52.8541 34.0968 53.2722 37.4448 52.2852 38.1956M42.63 10.5471C38.0641 6.87185 42.3072 3.3885 44.9995 2.10622C47.693 1.69845 51.8016 1.97487 51.5496 5.19039M42.63 10.5471C44.2826 10.7168 48.0649 10.6375 49.9736 8.96302C50.6567 7.92191 51.0945 7.02625 51.3335 6.25788M51.5496 5.19039C51.5241 5.51542 51.4541 5.87047 51.3335 6.25788M51.5496 5.19039C51.4651 5.48242 51.391 5.83888 51.3335 6.25788M58.2758 30.9301C60.7543 30.5204 63.3794 30.4282 66.1442 30.7346M58.2758 30.9301C58.8782 32.3695 60.3304 35.155 61.3197 34.7811M58.2758 30.9301C51.6362 18.6513 50.8232 9.98299 51.3335 6.25788M66.1442 30.7346C68.2116 26.7481 71.4473 17.447 67.851 12.1345M66.1442 30.7346C68.0886 30.9501 70.1021 31.3627 72.1824 32.0007M67.851 12.1345C64.2548 6.822 71.3559 5.64725 75.9662 6.28759C78.8391 7.58456 81.676 9.81579 78.3871 12.6931M67.851 12.1345C69.2309 13.3339 72.8246 15.4174 76.1605 14.1567C77.1082 13.6623 77.839 13.1727 78.3871 12.6931M78.3871 12.6931C75.2902 16.7574 69.7135 26.3089 72.1824 32.0007M72.1824 32.0007C75.0809 32.8897 78.1091 34.2162 81.2604 36.0566C81.6731 36.2976 82.0764 36.5424 82.4702 36.7908M89.7805 52.2956C91.0216 51.8265 92.7278 51.1193 94.5149 50.2775M103.108 44.4788C105.316 40.8644 112.066 45.0645 110.731 49.9375C109.395 54.8105 107.527 55.1196 105.611 54.255M103.108 44.4788C103.079 44.5226 103.051 44.5665 103.024 44.6104M103.108 44.4788C103.081 44.5225 103.053 44.5664 103.024 44.6104M105.611 54.255C103.666 53.5937 99.603 52.8606 95.7575 53.8246M105.611 54.255C103.716 53.3993 100.406 48.8001 103.024 44.6104M92.1362 55.3765C93.2657 54.6365 94.5 54.1398 95.7575 53.8246M94.5149 50.2775C93.0288 46.8311 90.7503 43.5499 87.5045 40.5959M94.5149 50.2775C97.9839 48.6434 101.757 46.5019 103.024 44.6104M94.5149 50.2775C93.0248 46.8218 90.738 43.5322 87.4783 40.572M95.7575 53.8246C101.184 73.6248 83.0438 97.1931 73.2211 95.5602C28.9235 107.184 27.1038 72.2902 31.7312 53.3902C33.0146 50.6455 35.1662 46.7852 37.6911 43.7113M37.6911 43.7113C36.4918 41.9393 33.0323 38.3196 28.7881 38.0174M37.6911 43.7113C38.7191 42.4597 39.8464 41.2249 41.0699 40.0427M28.7881 38.0174C23.4829 37.6397 22.4323 34.8598 24.7251 30.4191C27.0179 25.9785 31.1652 28.0534 32.2 29.1826C32.6152 29.6355 32.9575 30.4906 33.0778 31.505M28.7881 38.0174C32.4905 36.8933 33.3492 33.7936 33.0778 31.505M41.0699 40.0427C38.6419 38.5218 33.6443 34.6851 33.0778 31.505M82.4702 36.7908C84.1777 37.8676 85.7089 39.012 87.0759 40.2127C87.2116 40.3319 87.3457 40.4517 87.4783 40.572M82.4702 36.7908C86.5787 32.7229 94.9408 23.4997 95.5208 19.1504C95.6882 17.8958 96.0423 16.7405 96.4996 15.8956M96.4996 15.8956C97.9104 13.2888 100.4 12.9115 102.406 14.2515C105.062 16.026 109.135 21.5503 103.097 23.4353C102.707 23.5569 102.339 23.6303 101.991 23.6608M96.4996 15.8956C96.6708 18.7839 98.0204 24.0089 101.991 23.6608M101.991 23.6608C96.4269 27.1516 85.6134 35.5921 87.5045 40.5959M87.5045 40.5959C87.4958 40.5879 87.487 40.58 87.4783 40.572M58.7508 40.5927C58.4708 44.405 59.5957 51.234 66.3351 48.0514C74.7595 44.0733 64.3406 33.3174 58.7508 40.5927ZM76.1521 61.4175C74.536 64.1463 72.9301 69.7041 79.4353 70.1048C87.0334 66.0418 82.5846 60.5749 76.1521 61.4175Z" stroke="#1F1F22" stroke-width="0.9"/>
<path d="M71.512 77.74C77.5542 92.9147 69.7775 110.288 54.1049 116.528C38.4323 122.769 20.8422 115.496 14.8 100.321C8.75785 85.1466 16.5345 67.7734 32.2071 61.533C47.8797 55.2925 65.4698 62.5653 71.512 77.74ZM51.9677 111.161C64.5466 106.152 70.8252 92.1871 65.9539 79.9531C61.0826 67.719 46.9232 61.8917 34.3443 66.9003C21.7654 71.9089 15.4868 85.8741 20.3581 98.1082C25.2294 110.342 39.3888 116.17 51.9677 111.161ZM65.1177 80.286C69.7957 92.0346 63.776 105.49 51.6348 110.325C39.4937 115.159 25.8723 109.524 21.1943 97.7753C16.5163 86.0267 22.536 72.5708 34.6772 67.7365C46.8183 62.9022 60.4397 68.5374 65.1177 80.286Z" fill="white" stroke="#1F1F22" stroke-width="0.9"/>
<path d="M53.5712 116.923L57.9412 124.648L68.998 142.584C73.4431 144.779 74.7366 141.228 74.8277 139.178L63.117 120.22C61.4912 117.454 59.2205 113.782 58.7606 114.086C58.1464 114.492 55.3165 116.161 53.5712 116.923Z" stroke="#1F1F22" stroke-width="0.9"/>
<path d="M29.6649 95.2315C28.8665 88.6446 29.5828 75.4971 38.8358 75.6024C48.0889 75.7076 52.8144 79.468 54.0206 81.3351C54.1463 79.7933 54.2433 78.2516 54.3161 76.7545C51.1024 74.2229 42.7509 69.8434 35.0539 72.5783C27.3569 75.3132 25.8168 87.3893 26.0088 93.0854C27.1705 93.817 28.3974 94.5422 29.6649 95.2315Z" fill="#1F1F22"/>
<path d="M59.3362 84.6455C60.6192 85.7543 64.0461 88.0167 67.4898 88.1961C67.5437 85.4247 67.2848 83.7088 66.8703 83.3417C65.1425 82.7667 60.7979 81.5135 59.468 79.9455C59.4624 81.4819 59.422 83.0651 59.3362 84.6455Z" fill="#1F1F22"/>
<path d="M59.1125 70.9863L56.7854 69.2512L54.4905 67.8054C54.5215 70.2179 54.4805 73.3723 54.3161 76.7545C54.2433 78.2516 54.1463 79.7933 54.0206 81.3351C53.4047 88.8897 52.1002 96.4457 49.58 98.7591C44.2717 101.54 36.3966 98.8922 29.6649 95.2315C28.3974 94.5422 27.1705 93.817 26.0088 93.0854C23.4846 91.4958 20.7355 90.008 19.0822 88.6604C18.9427 89.407 18.5714 92.1191 19.4554 94.8338C21.4251 96.4456 24.1297 97.1805 25.8853 98.4024C27.2375 99.3434 28.5291 100.174 29.7648 100.904C41.8718 108.053 48.6701 106.991 54.3065 101.38C57.1894 98.51 58.945 91.8536 59.3362 84.6455C59.422 83.0651 59.4624 81.4819 59.468 79.9455C59.4803 76.5518 59.3233 73.3869 59.1125 70.9863Z" fill="#C6F0B3"/>
<path d="M25.8853 98.4024C26.0801 100.463 26.2598 104.777 25.4205 105.547C27.2664 107.482 28.7436 107.881 29.1406 108.341C29.6461 106.151 30.2622 101.964 29.7648 100.904C28.5291 100.174 27.2375 99.3434 25.8853 98.4024Z" fill="#1F1F22"/>
<path d="M25.8853 98.4024C24.1297 97.1805 21.4251 96.4457 19.4554 94.8338C18.5714 92.1191 18.9427 89.407 19.0822 88.6604C20.7355 90.008 23.4846 91.4958 26.0088 93.0854M25.8853 98.4024C26.0801 100.463 26.2598 104.777 25.4205 105.547C27.2664 107.482 28.7436 107.881 29.1406 108.341C29.6461 106.151 30.2622 101.964 29.7648 100.904M25.8853 98.4024C27.2375 99.3434 28.5291 100.174 29.7648 100.904M29.7648 100.904C41.8718 108.053 48.6701 106.991 54.3065 101.38C57.1894 98.51 58.945 91.8536 59.3362 84.6455M29.6649 95.2315C36.3966 98.8922 44.2717 101.54 49.58 98.7591C52.1002 96.4457 53.4047 88.8897 54.0206 81.3351M29.6649 95.2315C28.8665 88.6446 29.5828 75.4971 38.8358 75.6024C48.0889 75.7076 52.8144 79.468 54.0206 81.3351M29.6649 95.2315C28.3974 94.5422 27.1705 93.817 26.0088 93.0854M54.0206 81.3351C54.1463 79.7933 54.2433 78.2516 54.3161 76.7545M59.3362 84.6455C60.6192 85.7543 64.0461 88.0167 67.4898 88.1961C67.5437 85.4247 67.2848 83.7088 66.8703 83.3417C65.1425 82.7667 60.7979 81.5135 59.468 79.9455M59.3362 84.6455C59.422 83.0651 59.4624 81.4819 59.468 79.9455M59.468 79.9455C59.4803 76.5518 59.3233 73.3869 59.1125 70.9863L56.7854 69.2512L54.4905 67.8054C54.5215 70.2179 54.4805 73.3723 54.3161 76.7545M54.3161 76.7545C51.1024 74.2229 42.7509 69.8434 35.0539 72.5783C27.3569 75.3132 25.8168 87.3893 26.0088 93.0854M32.0218 88.8167L36.3851 96.4863M34.6429 84.0909L41.4093 95.9611M38.0517 79.8019L46.7295 96.9545M42.5132 79.1864L49.2778 92.6183M48.3934 80.2843L51.7234 87.2803" stroke="#1F1F22" stroke-width="0.9"/>
</svg>
