<svg width="113" height="148" viewBox="0 0 113 148" fill="none" xmlns="http://www.w3.org/2000/svg">
<path d="M61 42H55.5M61 42L43.5 61M61 42V49M75 91.5H81V77.5M71 91.5H66M62 91.5H57.5M52.5 91.5H47M43 91.5H40V77.5M40 77.5V76M40 77.5H45.5M81 77.5H76.5M81 77.5V73M43.5 47.5V42H49M43.5 47.5L49 42M43.5 47.5V54M49 42H55.5M43.5 54L55.5 42M43.5 54V61M43.5 61V66.5M43.5 66.5V68H40V76M43.5 66.5L61 49M61 49V55M40 76L61 55M61 55V62M45.5 77.5L61 62M45.5 77.5H52.5M61 62V68H62M52.5 77.5L62 68M52.5 77.5H59M62 68H68.5M59 77.5L68.5 68M59 77.5H64.5M68.5 68H74M64.5 77.5L74 68M64.5 77.5H71M74 68H80.5M71 77.5L80.5 68M71 77.5H76.5M80.5 68H81V73M76.5 77.5L81 73" stroke="#1F1F22" stroke-width="0.9"/>
<rect x="13.45" y="11.45" width="84.1" height="119.1" stroke="#1F1F22" stroke-width="0.9"/>
<path d="M33 54.45H33.45V54V32.5V15.45H93.55V126.55H17.45V32.95H19.5552L19.7947 53.55H17.5V54.45H20.25H23H26H29.5H33ZM19.55 32.05H17.45V15.45H19.55V32.05ZM20.45 32.05V15.45H22.55V32.05H20.45ZM23.45 32.05V15.45H25.55V32.05H23.45ZM26.45 32.05V15.45H29.05V32.05H26.45ZM29.95 32.05V15.45H32.55V32.05H29.95ZM29.95 32.95H32.55V53.55H29.95V32.95ZM29.05 32.95V53.55H26.45V32.95H29.05ZM25.55 32.95V53.55H23.45V32.95H25.55ZM22.55 32.95V53.55H20.6948L20.4553 32.95H22.55Z" stroke="#1F1F22" stroke-width="0.9"/>
<path d="M107.773 23.6175C107.282 22.5985 103.478 21.7639 101.637 21.474C97.3376 21.7268 88.977 24.9204 89.7148 35.6515C89.7238 35.7821 89.7471 35.9153 89.784 36.0408C90.2881 37.7532 90.9947 39.1457 91.843 40.2655L93.2771 37.6204C91.9463 34.0219 91.6478 26.3549 100.888 24.0915C101.145 24.0285 101.428 24.0232 101.687 24.0761C112.925 26.3667 110.5 37.8069 105.225 40.9515C104.593 41.3281 104.075 41.9136 103.961 42.6402L103.68 44.4321C106.372 44.7935 107.931 42.4843 108.941 41.5029C112.132 38.4017 115.086 29.9743 107.882 23.7115C107.84 23.7108 107.804 23.6804 107.773 23.6175Z" fill="#F5A172"/>
<path fill-rule="evenodd" clip-rule="evenodd" d="M107.882 23.7115C108.43 23.7209 109.919 18.7377 110.93 15.0103C111.202 14.0063 110.645 12.969 109.663 12.626L107.152 11.7489C106.11 11.3846 104.969 11.9347 104.605 12.9775L101.637 21.474C103.478 21.7639 107.282 22.5985 107.773 23.6175C107.804 23.6804 107.84 23.7108 107.882 23.7115ZM96.3986 82.6698L103.68 44.4321L104.393 40.3043C104.573 39.2575 103.904 38.2521 102.869 38.0147L102.33 37.8911C101.223 37.6373 100.127 38.3549 99.9172 39.4709L99.5986 41.1654L99.0247 44.2179L92.0788 81.1608L83.2549 128.093C83.1209 128.805 83.5736 129.497 84.2804 129.659L85.4001 129.915C86.5069 130.169 87.6028 129.452 87.8126 128.336L96.3986 82.6698ZM95.9628 43.4499L78.3714 76.3727L56.0543 118.14C55.4922 119.192 54.1401 119.521 53.1572 118.845L53.1148 118.816L51.7854 117.902C50.9423 117.322 50.6726 116.2 51.1603 115.301L73.2384 74.5797L91.843 40.2655L93.2771 37.6204L93.9783 36.3272C94.5184 35.3309 95.7777 34.9821 96.7535 35.5583L97.7076 36.1218C98.6301 36.6666 98.9594 37.8415 98.4545 38.7865L97.5006 40.5718L95.9628 43.4499Z" fill="#F8CFB9"/>
<path d="M99.5986 41.1654C98.9497 41.0316 97.6216 40.7255 97.5006 40.5718L95.9628 43.4499C96.9518 43.857 97.9864 44.1023 99.0247 44.2179L99.5986 41.1654Z" fill="#F5A172"/>
<path d="M101.637 21.474C103.478 21.7639 107.282 22.5985 107.773 23.6175M101.637 21.474C97.3376 21.7268 88.977 24.9204 89.7148 35.6515M101.637 21.474L104.605 12.9775M107.773 23.6175C107.804 23.6804 107.84 23.7108 107.882 23.7115M107.773 23.6175C107.81 23.6488 107.846 23.6801 107.882 23.7115M93.2771 37.6204L93.9783 36.3272C94.5184 35.3309 95.7777 34.9821 96.7535 35.5583L97.7076 36.1218C98.6301 36.6666 98.9594 37.8415 98.4545 38.7865L97.5006 40.5718M93.2771 37.6204C91.9463 34.0219 91.6478 26.3549 100.888 24.0915C101.145 24.0285 101.428 24.0232 101.687 24.0761C112.925 26.3667 110.5 37.8069 105.225 40.9515C104.593 41.3281 104.075 41.9136 103.961 42.6402L103.68 44.4321M93.2771 37.6204L91.843 40.2655M99.5986 41.1654L99.9172 39.4709C100.127 38.3549 101.223 37.6373 102.33 37.8911L102.869 38.0147C103.904 38.2521 104.573 39.2575 104.393 40.3043L103.68 44.4321M99.5986 41.1654C98.9497 41.0316 97.6216 40.7255 97.5006 40.5718M99.5986 41.1654L99.0247 44.2179M97.5006 40.5718L95.9628 43.4499M91.843 40.2655L73.2384 74.5797M91.843 40.2655C90.9947 39.1457 90.2881 37.7532 89.784 36.0408M95.9628 43.4499C96.9518 43.857 97.9864 44.1023 99.0247 44.2179M95.9628 43.4499L78.3714 76.3727M99.0247 44.2179L92.0788 81.1608M103.68 44.4321C106.372 44.7935 107.931 42.4843 108.941 41.5029C112.132 38.4017 115.086 29.9743 107.882 23.7115M103.68 44.4321L96.3986 82.6698M84.2804 129.659V129.659C83.5736 129.497 83.1209 128.805 83.2549 128.093V128.093M84.2804 129.659L82.9245 135.692M84.2804 129.659L85.4001 129.915M84.2804 129.659C83.5736 129.497 83.1209 128.805 83.2549 128.093M53.1148 118.816L50.0472 123.679M53.1148 118.816L53.1572 118.845M53.1148 118.816L51.7854 117.902M73.2384 74.5797L64.0785 71.3801M73.2384 74.5797L51.1603 115.301M78.3714 76.3727L92.0788 81.1608M78.3714 76.3727L56.0543 118.14M92.0788 81.1608L83.2549 128.093M96.3986 82.6698L105.145 85.725M96.3986 82.6698L87.8126 128.336M110.93 15.0103C109.919 18.7377 108.43 23.7209 107.882 23.7115M110.93 15.0103C111.202 14.0063 110.645 12.969 109.663 12.626M110.93 15.0103V15.0103C111.202 14.0071 110.645 12.9687 109.663 12.626V12.626M87.8126 128.336C87.6028 129.452 86.5069 130.169 85.4001 129.915M87.8126 128.336V128.336C87.6028 129.452 86.5069 130.169 85.4001 129.915V129.915M56.0543 118.14C55.4922 119.192 54.1401 119.521 53.1572 118.845M56.0543 118.14V118.14C55.4922 119.192 54.1401 119.521 53.1572 118.845V118.845M51.7854 117.902C50.9423 117.322 50.6726 116.2 51.1603 115.301M51.7854 117.902V117.902C50.9423 117.322 50.6726 116.2 51.1603 115.301V115.301M89.784 36.0408C89.7471 35.9153 89.7238 35.7821 89.7148 35.6515M89.784 36.0408V36.0408C89.7471 35.9153 89.724 35.7859 89.715 35.6553C89.7149 35.654 89.7149 35.6528 89.7148 35.6515M104.605 12.9775C104.969 11.9347 106.11 11.3846 107.152 11.7489M104.605 12.9775V12.9775C104.969 11.9347 106.11 11.3846 107.152 11.7489V11.7489M107.152 11.7489L109.663 12.626" stroke="#1F1F22" stroke-width="0.9"/>
<path fill-rule="evenodd" clip-rule="evenodd" d="M53.9603 89.6348L56.7726 91.946L63.706 83.5092L55.1851 75.4185L48.5167 69.0866L42.2187 63.1065L35.9206 57.1264L29.6226 51.1463L17.7676 39.8897L10.55 47.9151L13.9307 51.0489C7.72783 56.1448 -1.62785 71.2791 13.8635 88.7748C29.3548 106.271 47.0494 96.638 53.9603 89.6348ZM19.0167 56.6509L46.3763 83.9356C42.3673 87.5157 30.9051 95.7284 20.0339 84.5116C9.4506 73.5917 15.0701 61.2009 19.0167 56.6509Z" fill="#F5A172"/>
<path d="M55.1851 75.4185L63.706 83.5092L56.7726 91.946L53.9603 89.6348C47.0494 96.638 29.3548 106.271 13.8635 88.7748C-1.62785 71.2791 7.72783 56.1448 13.9307 51.0489L10.55 47.9151L17.7676 39.8897L29.6226 51.1463M55.1851 75.4185L51.9783 78.8496M55.1851 75.4185L48.5167 69.0866M48.5167 69.0866L47.5281 69.7696M48.5167 69.0866L42.2187 63.1065M42.2187 63.1065L39.4354 66.8527M42.2187 63.1065L35.9206 57.1264M35.9206 57.1264L35.1422 58.8797M35.9206 57.1264L29.6226 51.1463M29.6226 51.1463L26.4811 55.1401M46.3763 83.9356L19.0167 56.6509C15.0701 61.2009 9.4506 73.5917 20.0339 84.5116C30.9051 95.7284 42.3673 87.5157 46.3763 83.9356Z" stroke="#1F1F22" stroke-width="0.9"/>
</svg>
