<svg width="113" height="148" viewBox="0 0 113 148" fill="none" xmlns="http://www.w3.org/2000/svg">
<path d="M90.3572 120.33L87.3083 118.577C82.9015 120.126 80.2306 118.93 79.4461 118.139L68.9207 107.046L68.0787 106.158L81.7151 94.2028L83.0787 93.0072C84.8619 95.3936 89.4715 101.175 93.6439 105.207C97.8164 109.24 94.2782 113.511 91.9876 115.143L93.6461 118.138L90.3572 120.33Z" fill="#F7E1A0"/>
<path d="M79.4461 118.139L72.5742 123.034L71.1297 120.842L46.9289 125.3L47.3549 113.976C53.7373 114.244 66.3043 113.712 65.512 109.446C67.202 109.329 68.4886 107.797 68.9207 107.046L79.4461 118.139Z" fill="#F0C64C"/>
<path d="M53.2587 77.8396C56.0368 73.9492 60.9085 74.9978 62.9971 76.0084C60.8029 79.6404 58.0445 83.236 54.6963 86.2066C53.0596 85.0386 50.4807 81.73 53.2587 77.8396Z" fill="#F0C64C"/>
<path d="M68.0787 106.158L68.9207 107.046M68.0787 106.158C62.7117 102.165 49.5176 93.988 39.6764 93.2288M68.0787 106.158L81.7151 94.2028M79.4461 118.139C80.2306 118.93 82.9015 120.126 87.3083 118.577L90.3572 120.33L93.6461 118.138L91.9876 115.143C94.2782 113.511 97.8164 109.24 93.6439 105.207C89.4715 101.175 84.8619 95.3936 83.0787 93.0072L81.7151 94.2028M79.4461 118.139L72.5742 123.034L71.1297 120.842L46.9289 125.3L47.3549 113.976C53.7374 114.244 66.3043 113.712 65.512 109.446C67.202 109.329 68.4886 107.797 68.9207 107.046M79.4461 118.139L68.9207 107.046M39.6764 93.2288C33.3645 88.9187 63.0965 58.3794 68.9002 62.3972M39.6764 93.2288C45.6004 92.5508 50.5915 89.8484 54.6963 86.2066M68.9002 62.3972C70.1047 68.5339 78.7729 91.088 81.7151 94.2028M68.9002 62.3972C67.947 65.9954 66.0009 71.036 62.9971 76.0084M88.2965 110.979C85.6577 109.688 80.5886 106.274 81.4224 102.943M84.4194 114.194C81.7093 112.635 76.4815 108.949 77.2513 106.669M62.9971 76.0084C60.9085 74.9978 56.0368 73.9492 53.2587 77.8396C50.4807 81.73 53.0596 85.0386 54.6963 86.2066M62.9971 76.0084C60.8029 79.6404 58.0445 83.236 54.6963 86.2066" stroke="#1F1F22" stroke-width="0.9"/>
<path d="M30.767 70.732L30.5899 70.7201L30.4524 70.8323C27.6025 73.1565 23.9646 74.55 20 74.55C10.8597 74.55 3.45 67.1403 3.45 58C3.45 48.8597 10.8597 41.45 20 41.45C29.1403 41.45 36.55 48.8597 36.55 58C36.55 61.5714 35.4192 64.8775 33.4962 67.5813L33.3944 67.7244L33.4164 67.8986L33.8008 70.9355L30.767 70.732Z" fill="#F0C64C" stroke="#1F1F22" stroke-width="0.9"/>
<path d="M68.312 46.2936L68.489 46.2817L68.6265 46.3939C71.046 48.3671 74.1342 49.55 77.5 49.55C85.2596 49.55 91.55 43.2596 91.55 35.5C91.55 27.7404 85.2596 21.45 77.5 21.45C69.7404 21.45 63.45 27.7404 63.45 35.5C63.45 38.532 64.4099 41.3385 66.0425 43.6339L66.1443 43.777L66.1222 43.9512L65.8045 46.4618L68.312 46.2936Z" fill="#F7E1A0" stroke="#1F1F22" stroke-width="0.9"/>
<path fill-rule="evenodd" clip-rule="evenodd" d="M21.7711 52.5078L22.5707 55.9724C22.8623 55.8804 23.1845 55.8893 23.4828 56.0211L24.7372 56.5754C25.3998 56.8682 25.6937 57.6567 25.3935 58.3361L23.1694 63.3698C22.8692 64.0492 22.0883 64.3628 21.4257 64.07L20.1712 63.5157C19.7105 63.3122 19.4281 62.8689 19.3996 62.3894L19.261 62.451C18.7843 62.6631 18.2457 62.6649 17.7753 62.4571L13.5966 60.6107C12.8414 60.277 12.4043 59.4711 12.5242 58.6348L13.0427 55.019C13.1216 54.4658 13.437 53.9716 13.9022 53.669L14.2687 53.431C14.7958 53.0885 15.4519 53.0321 16.0176 53.2821L17.5763 53.9708L18.3353 52.2532C18.5125 51.852 18.8205 51.5213 19.2083 51.3209C20.254 50.779 21.5062 51.3582 21.7711 52.5078ZM20.5116 62.1954C20.4608 62.3104 20.5107 62.4442 20.6228 62.4937L21.8773 63.048C21.9894 63.0976 22.1219 63.0444 22.1727 62.9294L24.3969 57.8957C24.4477 57.7807 24.3978 57.647 24.2857 57.5974L23.0312 57.0431C22.919 56.9936 22.7866 57.0468 22.7357 57.1618L20.5116 62.1954ZM19.8577 60.9792L21.6576 56.9059L20.7056 52.7808C20.6009 52.326 20.1048 52.0959 19.69 52.3109C19.5324 52.3923 19.4052 52.5279 19.3319 52.6936L18.3472 54.9222C18.2225 55.2044 17.8983 55.3346 17.6231 55.213L15.566 54.304C15.3331 54.2012 15.063 54.2243 14.8458 54.3654L14.4795 54.6033C14.2874 54.7284 14.1577 54.9321 14.1255 55.1585L13.6069 58.7752C13.5575 59.1199 13.7376 59.4515 14.0481 59.5887L18.2268 61.4351C18.4208 61.5208 18.6427 61.5198 18.8381 61.4328L19.8577 60.9792Z" fill="white"/>
<path fill-rule="evenodd" clip-rule="evenodd" d="M22.2326 56.9525L20.2674 61.4002L19.0496 61.9419C18.7135 62.0915 18.3333 62.0928 18.001 61.9461L13.8224 60.0997C13.2895 59.8642 12.9809 59.2955 13.0655 58.705L13.5841 55.0888C13.6396 54.6988 13.862 54.35 14.1908 54.1362L14.5572 53.8982C14.9294 53.6563 15.3924 53.6166 15.7918 53.793L17.8489 54.702L18.8336 52.4734C18.9589 52.1899 19.1762 51.957 19.4489 51.8161C20.1792 51.4376 21.0536 51.8419 21.2383 52.6442L22.2326 56.9525ZM19.8577 60.9792L21.6576 56.9059L20.7056 52.7808C20.6009 52.326 20.1048 52.0959 19.69 52.3109C19.5324 52.3923 19.4052 52.5279 19.3319 52.6936L18.3472 54.9222C18.2225 55.2044 17.8983 55.3346 17.6231 55.213L15.566 54.304C15.3331 54.2012 15.063 54.2243 14.8458 54.3654L14.4795 54.6033C14.2874 54.7284 14.1577 54.9321 14.1255 55.1585L13.6069 58.7752C13.5575 59.1199 13.7376 59.4515 14.0481 59.5887L18.2268 61.4351C18.4208 61.5208 18.6427 61.5198 18.8381 61.4328L19.8577 60.9792Z" fill="#F0C64C"/>
<path fill-rule="evenodd" clip-rule="evenodd" d="M21.6515 63.559L20.397 63.0047C20.0097 62.8336 19.8378 62.3724 20.0133 61.9752L20.2674 61.4002L22.2326 56.9525L22.2374 56.9416C22.4129 56.5444 22.8696 56.3609 23.257 56.5321L24.5114 57.0864C24.8988 57.2576 25.0707 57.7187 24.8952 58.1159L22.671 63.1496C22.4955 63.5468 22.0389 63.7302 21.6515 63.559ZM20.5116 62.1954C20.4608 62.3104 20.5107 62.4442 20.6228 62.4937L21.8773 63.048C21.9894 63.0976 22.1219 63.0444 22.1727 62.9294L24.3969 57.8957C24.4477 57.7807 24.3978 57.647 24.2857 57.5974L23.0312 57.0431C22.919 56.9936 22.7866 57.0468 22.7357 57.1618L20.5116 62.1954Z" fill="#F0C64C"/>
<path d="M20.6228 62.4937C20.5107 62.4442 20.4608 62.3104 20.5116 62.1954L22.7357 57.1618C22.7866 57.0468 22.919 56.9936 23.0312 57.0431L24.2857 57.5974C24.3978 57.647 24.4477 57.7807 24.3969 57.8957L22.1727 62.9294C22.1219 63.0444 21.9894 63.0976 21.8773 63.048L20.6228 62.4937Z" fill="white"/>
<path d="M21.6576 56.9059L19.8577 60.9792L18.8381 61.4328C18.6427 61.5198 18.4208 61.5208 18.2268 61.4351L14.0481 59.5887C13.7376 59.4515 13.5575 59.1199 13.6069 58.7752L14.1255 55.1585C14.1577 54.9321 14.2874 54.7284 14.4795 54.6033L14.8458 54.3654C15.063 54.2243 15.3331 54.2012 15.566 54.304L17.6231 55.213C17.8983 55.3346 18.2225 55.2044 18.3472 54.9222L19.3319 52.6936C19.4052 52.5279 19.5324 52.3923 19.69 52.3109C20.1048 52.0959 20.6009 52.326 20.7056 52.7808L21.6576 56.9059Z" fill="white"/>
<path fill-rule="evenodd" clip-rule="evenodd" d="M77.5 32.8556C77.9568 32.3069 78.6361 31.9928 79.35 32.0001C80.935 32.0001 82 33.4901 82 34.8776C82 37.778 78.389 40 77.5 40C76.611 40 73 37.778 73 34.8776C73 33.4901 74.065 32.0001 75.65 32.0001C76.3639 31.9928 77.0432 32.3069 77.5 32.8556Z" fill="white"/>
<path d="M40.3257 25.8521L40.2102 25.7174L40.0339 25.6978C38.1021 25.4831 36.2303 24.6269 34.7626 23.1313C31.3793 19.6835 31.4315 14.1458 34.8792 10.7625C38.327 7.37912 43.8647 7.43132 47.248 10.8791C50.6314 14.3268 50.5792 19.8645 47.1314 23.2479C45.7841 24.5701 44.1188 25.3671 42.3871 25.6425L42.2137 25.6701L42.1048 25.8079L41.2334 26.9102L40.3257 25.8521Z" fill="#F0C64C" stroke="#1F1F22" stroke-width="0.9"/>
<path d="M40.7622 13.2318C40.8371 13.0014 41.1629 13.0014 41.2378 13.2318L41.9542 15.4367C41.9877 15.5397 42.0836 15.6094 42.1919 15.6094H44.5103C44.7525 15.6094 44.8532 15.9193 44.6573 16.0617L42.7817 17.4244C42.694 17.4881 42.6574 17.6009 42.6908 17.7039L43.4073 19.9088C43.4821 20.1391 43.2185 20.3307 43.0226 20.1883L41.1469 18.8256C41.0593 18.7619 40.9407 18.7619 40.8531 18.8256L38.9774 20.1883C38.7815 20.3307 38.5179 20.1391 38.5927 19.9088L39.3092 17.7039C39.3426 17.6009 39.306 17.4881 39.2183 17.4244L37.3427 16.0617C37.1468 15.9193 37.2475 15.6094 37.4897 15.6094H39.8081C39.9164 15.6094 40.0123 15.5397 40.0458 15.4367L40.7622 13.2318Z" fill="white"/>
</svg>
