<svg width="113" height="148" viewBox="0 0 113 148" fill="none" xmlns="http://www.w3.org/2000/svg">
<path d="M57.6795 64.9767C55.5838 63.8467 53.4751 63.5368 51.4231 63.8075V80H64.7179V66.1276C62.2192 66.4297 59.8205 66.1312 57.6795 64.9767Z" fill="#F8CFB9"/>
<path d="M91.3077 50.7442C91.3077 48.3721 86.6154 46.7907 87.3974 52.3256C88.0706 52.4617 89.0915 52.5416 89.9213 52.3256C90.6982 52.1234 91.3077 51.6618 91.3077 50.7442Z" fill="#F5A171"/>
<path d="M35 46V77.6279M96 80H89.9213M35 77.6279V80H51.4231M35 77.6279C37.8346 72.7149 44.2861 64.7492 51.4231 63.8075M87.3974 52.3256C86.6154 46.7907 91.3077 48.3721 91.3077 50.7442C91.3077 51.6618 90.6982 52.1234 89.9213 52.3256M87.3974 52.3256C82.7696 57.2081 73.1718 65.1054 64.7179 66.1276M87.3974 52.3256C88.0706 52.4617 89.0915 52.5416 89.9213 52.3256M51.4231 63.8075C53.4751 63.5368 55.5838 63.8467 57.6795 64.9767C59.8205 66.1312 62.2192 66.4297 64.7179 66.1276M51.4231 63.8075V80M51.4231 80H64.7179M64.7179 66.1276V80M64.7179 80H89.9213M89.9213 52.3256V80" stroke="#1F1F22" stroke-width="0.9"/>
<rect x="30.45" y="38.45" width="69.1" height="48.1" stroke="#1F1F22" stroke-width="0.9"/>
<path fill-rule="evenodd" clip-rule="evenodd" d="M45.1508 94.0018C53.296 90.0473 56.7653 80.4266 52.8998 72.5135C49.0343 64.6003 39.2977 61.3912 31.1525 65.3458C23.0073 69.3003 19.5379 78.921 23.4035 86.8341C27.269 94.7473 37.0056 97.9564 45.1508 94.0018ZM43.5954 90.8178C49.9306 87.7421 52.629 80.2593 49.6224 74.1047C46.6159 67.95 39.043 65.454 32.7078 68.5298C26.3727 71.6055 23.6743 79.0883 26.6808 85.2429C29.6874 91.3976 37.2603 93.8936 43.5954 90.8178Z" fill="#F5A171"/>
<path fill-rule="evenodd" clip-rule="evenodd" d="M44.776 93.2353C52.5204 89.4754 55.7821 80.3533 52.134 72.8853C48.4859 65.4173 39.2711 62.3526 31.5267 66.1126C23.7823 69.8725 20.5207 78.9945 24.1688 86.4626C27.8169 93.9306 37.0317 96.9953 44.776 93.2353ZM50.3878 73.7331C53.6117 80.3329 50.7056 88.3143 43.9697 91.5846C37.2337 94.8549 29.139 92.2146 25.915 85.6148C22.691 79.015 25.5971 71.0336 32.3331 67.7633C39.069 64.4929 47.1638 67.1333 50.3878 73.7331ZM52.8995 72.5136C56.7651 80.4268 53.2957 90.0474 45.1505 94.002C37.0054 97.9565 27.2687 94.7474 23.4032 86.8343C19.5377 78.9211 23.007 69.3005 31.1522 65.3459C39.2974 61.3914 49.034 64.6005 52.8995 72.5136ZM49.6222 74.1048C52.6287 80.2595 49.9303 87.7422 43.5952 90.818C37.26 93.8937 29.6871 91.3978 26.6806 85.2431C23.674 79.0884 26.3724 71.6057 32.7076 68.5299C39.0427 65.4542 46.6156 67.9501 49.6222 74.1048Z" fill="#1F1F22"/>
<path d="M49.3811 90.6333C48.8854 91.1374 45.8806 93.5676 44.1183 94.4234L66.6209 130.66C71.5909 133.236 72.0121 129.246 71.6014 126.928L49.3811 90.6333Z" fill="#F5A171"/>
<path fill-rule="evenodd" clip-rule="evenodd" d="M49.4583 89.9455L72.0063 126.776L72.0204 126.855C72.1283 127.464 72.1826 128.187 72.1192 128.891C72.0562 129.59 71.8741 130.308 71.4778 130.874C71.0689 131.459 70.4473 131.858 69.5824 131.915C68.7411 131.97 67.7018 131.7 66.4252 131.038L66.3206 130.984L43.5066 94.2458L43.9304 94.04C44.7718 93.6314 45.9356 92.8317 46.9671 92.0557C48.0003 91.2783 48.8526 90.5613 49.0761 90.3341L49.4583 89.9455ZM44.7215 94.5893L66.9194 130.335C68.0742 130.919 68.9189 131.104 69.5235 131.065C70.1226 131.025 70.5124 130.765 70.7788 130.384C71.0577 129.986 71.2145 129.432 71.2703 128.812C71.3231 128.225 71.2828 127.612 71.1947 127.08L49.2868 91.295C48.8644 91.6596 48.2062 92.1915 47.4811 92.7371C46.5953 93.4035 45.5746 94.117 44.7215 94.5893Z" fill="#1F1F22"/>
<path d="M26.8714 21.8612C26.4184 22.4283 25.4445 23.6304 25.1726 23.9026L21.7751 23.2221L20.416 27.9852L23.4738 29.0059L23.8136 31.7277L21.0955 33.4288C21.7751 34.9031 23.202 37.9197 23.4738 38.1919C23.7457 38.4641 25.8522 37.398 26.8714 36.831L28.91 38.5321C28.5702 39.4394 27.8907 41.322 27.8907 41.5941C27.8907 41.8663 31.0618 42.8416 32.6474 43.2952L34.0064 40.2332C34.9124 40.1198 36.7924 39.893 37.0642 39.893C37.336 39.893 38.0835 41.7075 38.4233 42.6148L43.1799 40.5735L41.4811 37.1712L43.1799 35.1299L46.9172 36.1506L48.2763 31.0472L44.5389 29.3461V26.9645L47.257 24.9232L45.5582 20.8405C44.4257 21.1808 41.8209 22.2014 41.8209 22.2014C41.8209 22.2014 40.1221 21.1808 39.4425 20.5003L40.8016 16.7579L35.7052 15.397C35.1389 16.4176 34.0064 18.527 34.0064 18.7992C34.0064 19.1394 31.9678 19.1394 31.6281 19.1394C31.2883 19.1394 29.9293 16.4177 29.9293 16.0774C29.9293 15.7372 25.8522 18.1188 25.5124 18.459C25.2406 18.7312 26.3052 20.8406 26.8714 21.8612Z" fill="#F8CFB9"/>
<path fill-rule="evenodd" clip-rule="evenodd" d="M35.5369 15L41.2477 16.525L39.8385 20.4056C40.1638 20.6935 40.6401 21.0327 41.075 21.3231C41.3264 21.4909 41.5571 21.6379 41.7249 21.7429C41.7738 21.7735 41.8173 21.8005 41.8544 21.8234C41.9244 21.7962 42.0155 21.7609 42.1235 21.7192C42.386 21.618 42.748 21.4794 43.1456 21.3301C43.9369 21.0329 44.8817 20.6887 45.4606 20.5148L45.7541 20.4266L47.6723 25.0367L44.8787 27.1348V29.1271L48.6787 30.8568L47.1575 36.5689L43.3012 35.5158L41.8844 37.2182L43.645 40.7441L38.2301 43.068L38.1052 42.7344C37.9371 42.2855 37.6686 41.6137 37.4102 41.0572C37.2803 40.7775 37.1574 40.5367 37.0544 40.3695C37.0189 40.312 36.9893 40.2689 36.9658 40.2384C36.7638 40.2532 36.3283 40.2994 35.8119 40.3587C35.2771 40.4201 34.6824 40.4922 34.2389 40.5472L32.838 43.7037L32.5541 43.6225C31.7584 43.3948 30.5638 43.036 29.566 42.6991C29.0682 42.5311 28.6125 42.3662 28.2783 42.2243C28.113 42.154 27.966 42.0847 27.8562 42.0191C27.8026 41.9871 27.7438 41.9479 27.6942 41.9012C27.6621 41.871 27.551 41.7641 27.551 41.5942C27.551 41.514 27.572 41.4176 27.5905 41.3414C27.6118 41.2535 27.6416 41.1475 27.677 41.0302C27.7478 40.7952 27.845 40.5013 27.9517 40.1907C28.1325 39.6645 28.3436 39.082 28.5076 38.6393L26.832 37.241C26.3259 37.5164 25.6429 37.8671 25.0293 38.1376C24.6806 38.2914 24.3426 38.4245 24.0677 38.5016C23.9318 38.5396 23.7952 38.5687 23.6728 38.5747C23.5736 38.5796 23.3774 38.5765 23.2336 38.4326C23.1648 38.3637 23.0925 38.2493 23.0297 38.1439C22.9592 38.0256 22.8756 37.8741 22.7831 37.6999C22.5979 37.3509 22.3709 36.8983 22.1325 36.4109C21.6553 35.4353 21.1275 34.3101 20.7871 33.5715L20.6616 33.2993L23.4496 31.5544L23.1633 29.2609L20 28.2051L21.5345 22.827L25.0534 23.5318C25.3732 23.1733 26.0375 22.3573 26.4644 21.8258C26.189 21.3186 25.8377 20.6327 25.5667 20.0166C25.4132 19.6675 25.2803 19.329 25.2033 19.0537C25.1653 18.9176 25.1362 18.7809 25.1302 18.6583C25.1254 18.559 25.1284 18.3625 25.2722 18.2185C25.3422 18.1485 25.472 18.0559 25.6101 17.9629C25.7592 17.8624 25.9504 17.7403 26.1675 17.6061C26.6019 17.3375 27.1476 17.0161 27.6823 16.7163C28.2156 16.4172 28.7445 16.136 29.1435 15.9499C29.3399 15.8583 29.5195 15.7828 29.6571 15.742C29.7189 15.7237 29.8079 15.7011 29.8966 15.7045C29.9396 15.7062 30.028 15.7151 30.1136 15.7755C30.2156 15.8476 30.2644 15.9572 30.2688 16.0623C30.2695 16.0658 30.2709 16.0724 30.2735 16.0823C30.2802 16.1082 30.2916 16.145 30.3087 16.1932C30.3427 16.2894 30.3935 16.4153 30.4581 16.5629C30.587 16.8571 30.7637 17.2216 30.9516 17.5769C31.14 17.9334 31.3354 18.2725 31.5011 18.5189C31.5849 18.6434 31.6544 18.7342 31.7065 18.7903C31.7094 18.7935 31.7122 18.7964 31.7148 18.7992C31.9496 18.7986 32.4512 18.7938 32.9186 18.7578C33.1902 18.7369 33.4334 18.7066 33.6023 18.6654C33.6392 18.6564 33.6683 18.6479 33.6908 18.6404L33.6917 18.6371C33.7039 18.593 33.72 18.5455 33.738 18.4975C33.7741 18.401 33.8243 18.284 33.8832 18.155C34.0015 17.8959 34.1635 17.5694 34.3414 17.2232C34.6975 16.53 35.124 15.7441 35.4082 15.2318L35.5369 15ZM41.8209 22.2015L41.646 22.4932L41.6406 22.49L41.6257 22.481L41.5694 22.4466C41.5208 22.4169 41.4508 22.3738 41.3648 22.3199C41.1929 22.2123 40.9564 22.0616 40.6981 21.8892C40.1898 21.5499 39.5688 21.1079 39.2023 20.741L39.0493 20.5878L40.3555 16.9909L35.8741 15.7943C35.6015 16.2901 35.2474 16.9471 34.9456 17.5345C34.7695 17.8773 34.613 18.193 34.5012 18.4378C34.4451 18.5608 34.4024 18.6613 34.3744 18.7362C34.3603 18.7738 34.3516 18.8006 34.3468 18.8178C34.3464 18.8196 34.346 18.8211 34.3456 18.8224C34.3345 19.0412 34.1682 19.16 34.0879 19.2064C33.9898 19.263 33.872 19.3 33.7629 19.3266C33.539 19.3811 33.2513 19.4146 32.9707 19.4362C32.4056 19.4797 31.8008 19.4797 31.6294 19.4797H31.6281C31.5024 19.4797 31.4066 19.4214 31.3585 19.3878C31.3024 19.3486 31.2519 19.3001 31.2087 19.2535C31.1214 19.1594 31.029 19.035 30.9375 18.899C30.7529 18.6244 30.5448 18.2618 30.351 17.8953C30.1567 17.5277 29.9724 17.148 29.8358 16.8362C29.7745 16.6961 29.7213 16.5665 29.681 16.4561C29.6105 16.4849 29.5267 16.5218 29.4304 16.5667C29.0543 16.7421 28.5427 17.0137 28.0143 17.31C27.4872 17.6056 26.9499 17.9221 26.5244 18.1851C26.3114 18.3168 26.1284 18.4338 25.9894 18.5274C25.9199 18.5743 25.8633 18.614 25.8205 18.6458C25.8173 18.6482 25.8142 18.6505 25.8112 18.6527C25.8166 18.7023 25.8308 18.7742 25.8577 18.8703C25.9216 19.0989 26.0392 19.4026 26.1886 19.7424C26.4859 20.4185 26.8883 21.1911 27.1685 21.6961L27.2792 21.8956L27.1368 22.0739C26.6915 22.6313 25.7018 23.854 25.4129 24.1432L25.2844 24.272L22.0157 23.6173L20.8321 27.7656L23.7845 28.751L24.1777 31.9011L21.5298 33.5583C21.8649 34.281 22.3239 35.2552 22.7427 36.1116C22.98 36.5966 23.2032 37.0414 23.3832 37.3806C23.4734 37.5505 23.5511 37.6909 23.6133 37.7954C23.638 37.8368 23.6579 37.8685 23.6733 37.8921C23.7225 37.8862 23.7924 37.8721 23.8845 37.8463C24.1128 37.7823 24.4161 37.6645 24.7555 37.5149C25.4306 37.2172 26.2021 36.8143 26.7065 36.5337L26.9101 36.4204L29.3129 38.4255L29.2282 38.6517C29.059 39.1035 28.8053 39.7978 28.5943 40.4121C28.4886 40.7195 28.3947 41.004 28.3275 41.2269C28.2993 41.3204 28.2766 41.4007 28.2598 41.4658C28.3289 41.5025 28.4235 41.5468 28.5437 41.5979C28.8536 41.7295 29.2898 41.8878 29.783 42.0543C30.6554 42.3488 31.6844 42.6617 32.4571 42.8864L33.7739 39.9196L33.9643 39.8957C34.418 39.8389 35.1157 39.7537 35.7345 39.6827C36.3377 39.6134 36.9032 39.5529 37.0643 39.5529C37.1737 39.5529 37.2582 39.5971 37.3075 39.6296C37.3596 39.664 37.4029 39.7055 37.437 39.7428C37.5055 39.8174 37.5714 39.9128 37.6326 40.0121C37.7568 40.2135 37.893 40.483 38.0264 40.7703C38.2356 41.2208 38.449 41.7391 38.6142 42.1628L42.7149 40.403L41.0779 37.1245L43.0587 34.7442L46.677 35.7324L47.8739 31.2379L44.1992 29.5653V26.7945L46.8418 24.8099L45.364 21.2584C44.8102 21.4393 44.0514 21.7167 43.3842 21.9672C42.989 22.1156 42.6289 22.2535 42.3677 22.3542C42.2371 22.4046 42.1312 22.4457 42.0581 22.4741L41.9451 22.5182L41.8209 22.2015ZM23.6095 37.8945C23.6095 37.8945 23.6127 37.8944 23.6179 37.8954C23.6119 37.8952 23.6095 37.8945 23.6095 37.8945ZM25.8095 18.5949C25.8095 18.5949 25.8096 18.5981 25.8086 18.6033C25.8089 18.5973 25.8095 18.5949 25.8095 18.5949ZM34.3438 18.8304L34.344 18.829ZM41.8209 22.2015L41.9451 22.5182L41.7892 22.5793L41.646 22.4932L41.8209 22.2015Z" fill="#1F1F22"/>
<path d="M40.122 29.6863C40.122 33.0685 37.3839 35.8103 34.0063 35.8103C30.6287 35.8103 27.8906 33.0685 27.8906 29.6863C27.8906 26.3041 30.6287 23.5623 34.0063 23.5623C37.3839 23.5623 40.122 26.3041 40.122 29.6863Z" fill="white"/>
<path fill-rule="evenodd" clip-rule="evenodd" d="M34.0063 35.1298C37.0086 35.1298 39.4424 32.6927 39.4424 29.6863C39.4424 26.6799 37.0086 24.2427 34.0063 24.2427C31.004 24.2427 28.5701 26.6799 28.5701 29.6863C28.5701 32.6927 31.004 35.1298 34.0063 35.1298ZM34.0063 35.8103C37.3839 35.8103 40.122 33.0685 40.122 29.6863C40.122 26.3041 37.3839 23.5623 34.0063 23.5623C30.6287 23.5623 27.8906 26.3041 27.8906 29.6863C27.8906 33.0685 30.6287 35.8103 34.0063 35.8103Z" fill="#1F1F22"/>
<path d="M54.7084 31.3087C54.8725 31.5279 53.937 33.8911 53.7556 34.5996L58.399 36.2405L59.6247 32.7438L61.9448 31.8507L63.6529 33.5628L67.6089 29.721L65.4229 27.9408L65.6943 26.0214L68.2873 24.9225L66.7813 20.0574L63.7782 20.6083L62.753 19.2384L63.0922 16.8391L58.1082 15.8839L57.7689 18.2832L55.4488 19.1763L53.3306 16.9163L49.6476 20.5522L51.5607 22.5382L51.7672 24.5257L48.6962 25.5565L49.9294 30.6275L53.0004 29.5967C53.5014 30.0761 54.5444 31.0896 54.7084 31.3087Z" fill="#F8CFB9"/>
<path fill-rule="evenodd" clip-rule="evenodd" d="M53.34 16.4263L55.5403 18.774L57.4592 18.0354L57.8205 15.4799L63.4758 16.5638L63.1107 19.146L63.9243 20.2331L67.0174 19.6656L68.705 25.1174L66.005 26.2617L65.7879 27.7969L68.123 29.6984L63.6491 34.0432L61.8603 32.2503L59.8941 33.0071L58.6075 36.6775L53.3471 34.8185L53.425 34.5142C53.4898 34.2611 53.6457 33.8078 53.8111 33.3272C53.8874 33.1056 53.9656 32.8781 54.0379 32.6617C54.1556 32.3092 54.2594 31.9811 54.3236 31.7304C54.3548 31.6088 54.3739 31.5156 54.3821 31.4514C54.3408 31.4052 54.2792 31.3391 54.1976 31.2547C54.0715 31.124 53.9121 30.9638 53.741 30.7942C53.4611 30.517 53.1528 30.2177 52.9133 29.9873L49.6857 31.0706L48.2901 25.3315L51.3992 24.2879L51.2334 22.6914L49.1668 20.5461L53.34 16.4263ZM50.1282 20.5583L51.8878 22.385L52.135 24.7636L49.1022 25.7816L50.1729 30.1844L53.087 29.2063L53.2357 29.3486C53.4872 29.5892 53.8747 29.9638 54.2204 30.3063C54.3932 30.4775 54.5566 30.6417 54.6878 30.7777C54.8129 30.9072 54.9249 31.0276 54.9812 31.1029C55.0518 31.1971 55.0637 31.301 55.0671 31.3494C55.0714 31.4092 55.0673 31.47 55.0609 31.5242C55.048 31.6339 55.0198 31.7643 54.9848 31.9011C54.914 32.1774 54.8034 32.5254 54.6851 32.8796C54.6041 33.1222 54.5202 33.366 54.4411 33.5957C54.3388 33.8931 54.2445 34.167 54.175 34.3845L58.1903 35.8034L59.355 32.4805L62.0293 31.4512L63.6566 33.0823L67.0946 29.7435L65.0577 28.0847L65.3834 25.7811L67.8695 24.7275L66.545 20.4491L63.6319 20.9835L62.3951 19.3308L62.7085 17.1145L58.3957 16.288L58.0786 18.531L55.3571 19.5786L53.3211 17.4062L50.1282 20.5583Z" fill="#1F1F22"/>
<path d="M61.6646 23.4889C63.0234 25.3048 62.6589 27.8828 60.8505 29.2471C59.042 30.6115 56.4744 30.2455 55.1156 28.4297C53.7568 26.6139 54.1213 24.0358 55.9298 22.6715C57.7382 21.3071 60.3058 21.6731 61.6646 23.4889Z" fill="white"/>
<path fill-rule="evenodd" clip-rule="evenodd" d="M60.4404 28.6992C61.9475 27.5622 62.2512 25.4138 61.1189 23.9007C59.9865 22.3875 57.8469 22.0825 56.3398 23.2195C54.8328 24.3564 54.529 26.5048 55.6614 28.0179C56.7937 29.5311 58.9334 29.8361 60.4404 28.6992ZM60.8505 29.2471C62.6589 27.8828 63.0234 25.3048 61.6646 23.4889C60.3058 21.6731 57.7382 21.3071 55.9298 22.6715C54.1213 24.0358 53.7568 26.6139 55.1156 28.4297C56.4744 30.2455 59.042 30.6115 60.8505 29.2471Z" fill="#1F1F22"/>
<circle cx="73" cy="104" r="4.55" fill="#F8CFB9" stroke="#1F1F22" stroke-width="0.9"/>
<circle cx="100" cy="87" r="4.55" fill="#F5A171" stroke="#1F1F22" stroke-width="0.9"/>
<circle cx="101" cy="122" r="4.55" fill="#F8CFB9" stroke="#1F1F22" stroke-width="0.9"/>
<path d="M76.5 101L96.5 90M101 91.5L102.5 117.5" stroke="#1F1F22" stroke-width="0.9"/>
</svg>
