<svg width="113" height="148" viewBox="0 0 113 148" fill="none" xmlns="http://www.w3.org/2000/svg">
<path d="M25.9929 36.0494C23.8659 40.1689 24.8406 42.7477 29.7621 43.0981C33.1968 42.0553 33.9933 39.1797 33.7415 37.0567C33.63 36.1156 33.3124 35.3224 32.9273 34.9022C31.9673 33.8547 28.12 31.9298 25.9929 36.0494Z" fill="#73DD44"/>
<path d="M44.801 9.78407C42.3034 10.9736 38.3672 14.205 42.6029 17.6145C44.136 17.7719 47.6448 17.6983 49.4154 16.145C50.0491 15.1792 50.4552 14.3483 50.677 13.6355C50.7303 13.2468 50.7991 12.9161 50.8774 12.6452C51.1112 9.66222 47.2998 9.40579 44.801 9.78407Z" fill="#73DD44"/>
<path d="M73.5282 13.663C69.2514 13.069 62.6638 14.1588 65.9999 19.0871C67.28 20.1997 70.6138 22.1326 73.7084 20.963C74.5876 20.5044 75.2655 20.0502 75.774 19.6053C78.8251 16.9361 76.1933 14.8662 73.5282 13.663Z" fill="#73DD44"/>
<path d="M98.6968 29.5706C104.299 27.8219 100.52 22.6971 98.0557 21.051C96.1947 19.8079 93.8853 20.1579 92.5765 22.5762C92.7354 25.2556 93.9874 30.1027 97.6707 29.7798C97.9937 29.7515 98.3355 29.6834 98.6968 29.5706Z" fill="#73DD44"/>
<path d="M105.778 54.1561C107.017 49.6355 100.755 45.7392 98.7069 49.0922C98.6821 49.1327 98.6561 49.1734 98.6287 49.2142C96.2002 53.101 99.271 57.3675 101.029 58.1613C102.806 58.9634 104.54 58.6766 105.778 54.1561Z" fill="#73DD44"/>
<path d="M57.5578 45.4871C57.2981 49.0237 58.3416 55.3588 64.5937 52.4064C72.4088 48.716 62.7434 38.738 57.5578 45.4871Z" fill="#C6F0B3"/>
<path fill-rule="evenodd" clip-rule="evenodd" d="M42.6029 17.6145C50.1342 22.7256 51.8585 33.3312 51.7792 37.9952C47.6667 39.6004 44.109 42.1232 41.1556 44.9769C40.0206 46.0736 38.9749 47.2191 38.0212 48.3802C35.6789 51.2318 33.6829 54.8129 32.4924 57.3591C28.1996 74.8922 29.8877 107.263 70.9816 96.4793C80.0939 97.9941 96.9226 76.1303 91.8881 57.762C95.4556 56.8678 99.2244 57.5479 101.029 58.1613C99.271 57.3675 96.2002 53.101 98.6287 49.2142C97.454 50.969 93.9535 52.9556 90.7354 54.4715C89.3568 51.2743 87.2431 48.2304 84.232 45.4901C84.2239 45.4827 84.2158 45.4753 84.2077 45.468C84.0847 45.3563 83.9603 45.2452 83.8344 45.1346C82.5663 44.0207 81.1459 42.9591 79.5618 41.9602C79.1964 41.7298 78.8224 41.5027 78.4395 41.2791C75.5161 39.5718 72.707 38.3412 70.018 37.5165C68.0882 36.9247 66.2203 36.5419 64.4166 36.342C61.8517 36.0577 59.4165 36.1432 57.1172 36.5233C50.9578 25.1325 50.2035 17.0912 50.677 13.6355C50.4552 14.3483 50.0491 15.1792 49.4154 16.145C47.6448 17.6983 44.136 17.7719 42.6029 17.6145ZM57.5578 45.4871C57.2981 49.0237 58.3416 55.3588 64.5937 52.4064C72.4088 48.716 62.7434 38.738 57.5578 45.4871ZM73.7006 64.8059C72.2014 67.3373 70.7116 72.4931 76.7464 72.8648C83.795 69.0957 79.6679 64.0242 73.7006 64.8059Z" fill="#C6F0B3"/>
<path d="M29.7621 43.0981C33.6994 43.3784 36.9087 46.7363 38.0212 48.3802C38.9749 47.2191 40.0206 46.0736 41.1556 44.9769C38.9032 43.566 34.2671 40.0068 33.7415 37.0567C33.9933 39.1797 33.1968 42.0553 29.7621 43.0981Z" fill="#C6F0B3"/>
<path d="M65.9999 19.0871C69.3361 24.0154 66.3344 32.6438 64.4166 36.342C66.2203 36.5419 68.0882 36.9247 70.018 37.5165C67.7277 32.2363 72.9011 23.3756 75.774 19.6053C75.2655 20.0502 74.5876 20.5044 73.7084 20.963C70.6138 22.1326 67.28 20.1997 65.9999 19.0871Z" fill="#C6F0B3"/>
<path d="M83.8344 45.1346C83.9603 45.2452 84.0847 45.3563 84.2077 45.468C84.2158 45.4753 84.2239 45.4827 84.232 45.4901C82.4776 40.8482 92.5091 33.0182 97.6707 29.7798C93.9874 30.1027 92.7354 25.2556 92.5765 22.5762C92.1523 23.36 91.8238 24.4317 91.6686 25.5956C91.1305 29.6304 83.3732 38.1865 79.5618 41.9602C81.1459 42.9591 82.5663 44.0207 83.8344 45.1346Z" fill="#C6F0B3"/>
<path fill-rule="evenodd" clip-rule="evenodd" d="M57.5578 45.4871C57.2981 49.0237 58.3416 55.3588 64.5937 52.4064C72.4088 48.716 62.7434 38.738 57.5578 45.4871Z" fill="#73DD44"/>
<path d="M73.7006 64.8059C72.2014 67.3373 70.7116 72.4931 76.7464 72.8648C83.795 69.0957 79.6679 64.0242 73.7006 64.8059Z" fill="#73DD44"/>
<path d="M51.7792 37.9952C51.8585 33.3312 50.1342 22.7256 42.6029 17.6145M51.7792 37.9952C47.6667 39.6004 44.109 42.1232 41.1556 44.9769M51.7792 37.9952C52.0876 39.461 52.4755 42.5669 51.5599 43.2634M42.6029 17.6145C38.3672 14.205 42.3034 10.9736 44.801 9.78407C47.2998 9.40579 51.1112 9.66222 50.8774 12.6452M42.6029 17.6145C44.136 17.7719 47.6448 17.6983 49.4154 16.145C50.0491 15.1792 50.4552 14.3483 50.677 13.6355M50.8774 12.6452C50.8538 12.9467 50.7888 13.2761 50.677 13.6355M50.8774 12.6452C50.7991 12.9161 50.7303 13.2468 50.677 13.6355M57.1172 36.5233C59.4165 36.1432 61.8517 36.0577 64.4166 36.342M57.1172 36.5233C57.676 37.8587 59.0232 40.4427 59.941 40.0959M57.1172 36.5233C50.9578 25.1325 50.2035 17.0912 50.677 13.6355M64.4166 36.342C66.3344 32.6438 69.3361 24.0154 65.9999 19.0871M64.4166 36.342C66.2203 36.5419 68.0882 36.9247 70.018 37.5165M65.9999 19.0871C62.6638 14.1588 69.2514 13.069 73.5282 13.663C76.1933 14.8662 78.8251 16.9361 75.774 19.6053M65.9999 19.0871C67.28 20.1997 70.6138 22.1326 73.7084 20.963C74.5876 20.5044 75.2655 20.0502 75.774 19.6053M75.774 19.6053C72.9011 23.3756 67.7277 32.2363 70.018 37.5165M70.018 37.5165C72.707 38.3412 75.5161 39.5718 78.4395 41.2791C78.8224 41.5027 79.1964 41.7298 79.5618 41.9602M86.3434 56.3437C87.4948 55.9085 89.0776 55.2525 90.7354 54.4715M98.7069 49.0922C100.755 45.7392 107.017 49.6355 105.778 54.1561C104.54 58.6766 102.806 58.9634 101.029 58.1613M98.7069 49.0922C98.6803 49.1328 98.6542 49.1735 98.6287 49.2142M98.7069 49.0922C98.6821 49.1327 98.6561 49.1734 98.6287 49.2142M101.029 58.1613C99.2244 57.5479 95.4556 56.8678 91.8881 57.762M101.029 58.1613C99.271 57.3675 96.2002 53.101 98.6287 49.2142M88.5287 59.2018C89.5765 58.5152 90.7216 58.0545 91.8881 57.762M90.7354 54.4715C89.3568 51.2743 87.2431 48.2304 84.232 45.4901M90.7354 54.4715C93.9535 52.9556 97.454 50.969 98.6287 49.2142M90.7354 54.4715C89.353 51.2657 87.2317 48.214 84.2077 45.468M91.8881 57.762C96.9226 76.1303 80.0939 97.9941 70.9816 96.4793C29.8877 107.263 28.1996 74.8922 32.4924 57.3591C33.6829 54.8129 35.6789 51.2318 38.0212 48.3802M38.0212 48.3802C36.9087 46.7363 33.6994 43.3784 29.7621 43.0981M38.0212 48.3802C38.9749 47.2191 40.0206 46.0736 41.1556 44.9769M29.7621 43.0981C24.8406 42.7477 23.8659 40.1689 25.9929 36.0494C28.12 31.9298 31.9673 33.8547 32.9273 34.9022C33.3124 35.3224 33.63 36.1156 33.7415 37.0567M29.7621 43.0981C33.1968 42.0553 33.9933 39.1797 33.7415 37.0567M41.1556 44.9769C38.9032 43.566 34.2671 40.0068 33.7415 37.0567M79.5618 41.9602C81.1459 42.9591 82.5663 44.0207 83.8344 45.1346C83.9603 45.2452 84.0847 45.3563 84.2077 45.468M79.5618 41.9602C83.3732 38.1865 91.1305 29.6304 91.6686 25.5956C91.8238 24.4317 92.1523 23.36 92.5765 22.5762M92.5765 22.5762C93.8853 20.1579 96.1947 19.8079 98.0557 21.051C100.52 22.6971 104.299 27.8219 98.6968 29.5706C98.3355 29.6834 97.9937 29.7515 97.6707 29.7798M92.5765 22.5762C92.7354 25.2556 93.9874 30.1027 97.6707 29.7798M97.6707 29.7798C92.5091 33.0182 82.4776 40.8482 84.232 45.4901M84.232 45.4901C84.2239 45.4827 84.2158 45.4753 84.2077 45.468M57.5578 45.4871C57.2981 49.0237 58.3416 55.3588 64.5937 52.4064C72.4088 48.716 62.7434 38.738 57.5578 45.4871ZM73.7006 64.8059C72.2014 67.3373 70.7116 72.4931 76.7464 72.8648C83.795 69.0957 79.6679 64.0242 73.7006 64.8059Z" stroke="#1F1F22" stroke-width="0.9"/>
<path d="M62.2162 76.3181C68.9712 87.0084 65.5236 101.341 54.4761 108.321C43.4285 115.302 29.0042 112.263 22.2492 101.572C15.4942 90.8822 18.9418 76.55 29.9893 69.5692C41.0369 62.5885 55.4612 65.6278 62.2162 76.3181ZM54.9568 109.082C66.4026 101.85 70.0112 86.9694 62.977 75.8373C55.9429 64.7053 40.9544 61.576 29.5086 68.8084C18.0627 76.0408 14.4542 90.9212 21.4884 102.053C28.5225 113.185 43.511 116.315 54.9568 109.082ZM68.0345 72.6416C76.7593 86.4494 72.3037 104.955 58.0428 113.966C43.782 122.977 25.1558 119.057 16.4309 105.249C7.70605 91.4411 12.1617 72.9357 26.4226 63.9245C40.6834 54.9134 59.3096 58.8338 68.0345 72.6416Z" fill="white" stroke="#1F1F22" stroke-width="0.9"/>
<path d="M57.5915 114.452L63.3053 121.244L77.4663 136.845C82.2387 138.187 82.8585 134.459 82.5719 132.427L67.5804 115.941C65.4745 113.52 62.5683 110.327 62.1721 110.711C61.6428 111.223 59.1673 113.382 57.5915 114.452Z" stroke="#1F1F22" stroke-width="0.9"/>
<path d="M30.1091 97.5169C28.1152 91.1885 26.4061 78.1329 35.5212 76.538C44.6364 74.943 49.9719 77.7722 51.5002 79.3861C51.3408 77.8474 51.1531 76.3141 50.9499 74.8291C47.3262 72.9304 38.3127 70.1582 31.2485 74.2595C24.1842 78.3608 24.8869 90.5143 26.1212 96.0784C27.3974 96.5844 28.7366 97.072 30.1091 97.5169Z" fill="#1F1F22"/>
<path d="M57.3332 81.6646C58.7979 82.519 62.5818 84.1139 66 83.6582C65.5442 80.9241 64.9747 79.2848 64.5 79C62.696 78.7519 58.1951 78.3174 56.6 77.0202C56.8765 78.5315 57.1275 80.0952 57.3332 81.6646Z" fill="#1F1F22"/>
<path d="M54.6061 68.2785L52 67L49.4788 66C49.952 68.3659 50.4908 71.4742 50.9499 74.8291C51.1531 76.3141 51.3408 77.8474 51.5002 79.3861C52.2815 86.9253 52.3861 94.5925 50.3333 97.3291C45.6258 101.038 37.3983 99.8798 30.1091 97.5169C28.7366 97.072 27.3974 96.5844 26.1212 96.0784C23.3481 94.9791 20.3726 94.0213 18.5 93C18.5 93.7595 18.6327 96.4937 20 99C22.2321 100.223 25.0256 100.449 26.9758 101.328C28.4776 102.005 29.8998 102.584 31.2485 103.075C44.4621 107.88 50.9499 105.589 55.4606 99.038C57.7677 95.6875 58.2716 88.822 57.3332 81.6646C57.1275 80.0952 56.8765 78.5315 56.6 77.0202C55.9892 73.682 55.2539 70.5996 54.6061 68.2785Z" fill="#C6F0B3"/>
<path d="M26.9758 101.328C27.5455 103.318 28.5139 107.525 27.8303 108.437C30 110 31.5253 110.12 32 110.5C32.0949 108.255 31.9321 104.026 31.2485 103.075C29.8998 102.584 28.4776 102.005 26.9758 101.328Z" fill="#1F1F22"/>
<path d="M26.9758 101.328C25.0256 100.449 22.2321 100.223 20 99C18.6327 96.4937 18.5 93.7595 18.5 93C20.3726 94.0213 23.3481 94.9791 26.1212 96.0784M26.9758 101.328C27.5455 103.318 28.5139 107.525 27.8303 108.437C30 110 31.5253 110.12 32 110.5C32.0949 108.255 31.9321 104.026 31.2485 103.075M26.9758 101.328C28.4776 102.005 29.8998 102.584 31.2485 103.075M31.2485 103.075C44.4621 107.88 50.9499 105.589 55.4606 99.038C57.7677 95.6875 58.2716 88.822 57.3332 81.6646M30.1091 97.5169C37.3983 99.8798 45.6258 101.038 50.3333 97.3291C52.3861 94.5925 52.2815 86.9253 51.5002 79.3861M30.1091 97.5169C28.1152 91.1885 26.4061 78.1329 35.5212 76.538C44.6364 74.943 49.9719 77.7722 51.5002 79.3861M30.1091 97.5169C28.7366 97.072 27.3974 96.5844 26.1212 96.0784M51.5002 79.3861C51.3408 77.8474 51.1531 76.3141 50.9499 74.8291M57.3332 81.6646C58.7979 82.519 62.5818 84.1139 66 83.6582C65.5442 80.9241 64.9747 79.2848 64.5 79C62.696 78.7519 58.1951 78.3174 56.6 77.0202M57.3332 81.6646C57.1275 80.0952 56.8765 78.5315 56.6 77.0202M56.6 77.0202C55.9892 73.682 55.2539 70.5996 54.6061 68.2785L52 67L49.4788 66C49.952 68.3659 50.4908 71.4742 50.9499 74.8291M50.9499 74.8291C47.3262 72.9304 38.3127 70.1582 31.2485 74.2595C24.1842 78.3608 24.8869 90.5143 26.1212 96.0784M31.2485 90.7785L36.9455 97.5169M32.9576 85.6519L41.7879 96.0784M35.5212 80.8101L47.2 96.0784M39.7939 79.3861L48.9091 91.3481M45.7758 79.3861L50.3333 85.6519" stroke="#1F1F22" stroke-width="0.9"/>
</svg>
