<svg width="113" height="148" viewBox="0 0 113 148" fill="none" xmlns="http://www.w3.org/2000/svg">
<rect x="6.45" y="25.45" width="71.1" height="65.1" fill="#C1D5F6" stroke="#1F1F22" stroke-width="0.9"/>
<path d="M11 42V31H73V42H11Z" fill="white" stroke="#1F1F22" stroke-width="0.9" stroke-linecap="round"/>
<path d="M11 56V45H73V56H11Z" fill="white" stroke="#1F1F22" stroke-width="0.9" stroke-linecap="round"/>
<path d="M11 70V59H73V70H11Z" fill="white" stroke="#1F1F22" stroke-width="0.9" stroke-linecap="round"/>
<path d="M11 84V73H73V84H11Z" fill="white" stroke="#1F1F22" stroke-width="0.9" stroke-linecap="round"/>
<path d="M52 48V37H107V48H52Z" fill="white" stroke="#1F1F22" stroke-width="0.9" stroke-linecap="round"/>
<path d="M55.5 39V46.5H72V39H55.5Z" fill="#677CE8"/>
<path d="M74.5 39V45M77 47V43M77 40.5V39M79.5 39V43M79.5 45V46.5M82 39V44M84.5 47V44M84.5 42V39M87.5 39V43M87.5 45V47M55.5 39V46.5H72V39H55.5Z" stroke="#1F1F22" stroke-width="0.9" stroke-linecap="round"/>
<path d="M52 62V51H107V62H52Z" fill="white" stroke="#1F1F22" stroke-width="0.9" stroke-linecap="round"/>
<path d="M55.5 53V60.5H72V53H55.5Z" fill="#C1D5F6"/>
<path d="M74.5 53V59M77 61V57M77 54.5V53M79.5 53V57M79.5 59V60.5M82 53V58M84.5 61V58M84.5 56V53M87.5 53V57M87.5 59V61M55.5 53V60.5H72V53H55.5Z" stroke="#1F1F22" stroke-width="0.9" stroke-linecap="round"/>
<path d="M52 76V65H107V76H52Z" fill="white" stroke="#1F1F22" stroke-width="0.9" stroke-linecap="round"/>
<path d="M55.5 67V74.5H72V67H55.5Z" fill="#677CE8"/>
<path d="M74.5 67V73M77 75V71M77 68.5V67M79.5 67V71M79.5 73V74.5M82 67V72M84.5 75V72M84.5 70V67M87.5 67V71M87.5 73V75M55.5 67V74.5H72V67H55.5Z" stroke="#1F1F22" stroke-width="0.9" stroke-linecap="round"/>
<path d="M104.5 37V15H26V25" stroke="#1F1F22" stroke-width="0.9" stroke-linecap="round"/>
<circle cx="17" cy="37" r="1.55" fill="#677CE8" stroke="#1F1F22" stroke-width="0.9"/>
<circle cx="24" cy="37" r="1.55" fill="#677CE8" stroke="#1F1F22" stroke-width="0.9"/>
<circle cx="31" cy="37" r="1.55" fill="#C1D5F6" stroke="#1F1F22" stroke-width="0.9"/>
<circle cx="17" cy="51" r="1.55" fill="#C1D5F6" stroke="#1F1F22" stroke-width="0.9"/>
<circle cx="24" cy="51" r="1.55" fill="#677CE8" stroke="#1F1F22" stroke-width="0.9"/>
<circle cx="31" cy="51" r="1.55" fill="#C1D5F6" stroke="#1F1F22" stroke-width="0.9"/>
<circle cx="17" cy="65" r="1.55" fill="#C1D5F6" stroke="#1F1F22" stroke-width="0.9"/>
<circle cx="24" cy="65" r="1.55" fill="#C1D5F6" stroke="#1F1F22" stroke-width="0.9"/>
<circle cx="31" cy="65" r="1.55" fill="#677CE8" stroke="#1F1F22" stroke-width="0.9"/>
<circle cx="17" cy="79" r="1.55" fill="#677CE8" stroke="#1F1F22" stroke-width="0.9"/>
<circle cx="24" cy="79" r="1.55" fill="#C1D5F6" stroke="#1F1F22" stroke-width="0.9"/>
<circle cx="31" cy="79" r="1.55" fill="#677CE8" stroke="#1F1F22" stroke-width="0.9"/>
<path d="M63.305 128.398C67.5474 129.413 77.5887 129.138 81.8489 116.517C83.6594 110.853 80.3353 106.229 78.447 104.625L76.7149 105.625L75.447 99.4287L82.7101 101.009L82.0941 101.942C85.3158 105.855 89.4111 115.615 83.4338 124.262C75.7786 135.337 67.2294 134.195 59.5332 132.865M68.0008 98.5316C63.1424 98.4499 52.9899 100.732 51.2473 110.514C49.544 117.963 53.3502 123.156 55.4662 124.821L56.0823 123.888L58.4662 130.017L51.4531 128.87L52.5021 127.687C49.8698 126.128 44.3457 118.56 47.2653 107.617C50.4866 95.5425 64.4845 93.4411 71.764 94.0496" stroke="#1F1F22" stroke-width="0.9" stroke-linecap="round"/>
</svg>
