<svg width="113" height="151" viewBox="0 0 113 151" fill="none" xmlns="http://www.w3.org/2000/svg">
<path d="M61.3551 110.496C62.0121 115.094 56.8414 122.271 54.1739 125.285L56.2138 127.805L64.699 120.937C64.2762 119.889 63.8933 117.418 65.7447 115.919C68.0588 114.046 70.0844 114.971 71.3385 116.52C71.4484 116.656 71.5571 116.802 71.6625 116.958L91.3946 100.285C89.0805 102.158 68.4918 109.848 61.3551 110.496Z" fill="#F2D5F6"/>
<path d="M76.4051 129.088C75.4396 124.741 93.7088 98.4117 91.3946 100.285L71.6625 116.958C72.7608 118.578 73.4999 121.182 71.3884 122.891C69.5371 124.39 67.3058 123.631 66.4216 123.065L57.9364 129.933L60.4447 133.032C64.446 128.511 68.6414 128.962 76.4051 129.088Z" fill="#F2D5F6"/>
<path d="M54.1739 125.285L52.9197 123.736L50.6055 125.609L58.7576 135.68L61.0718 133.807L60.4447 133.032L57.9364 129.933L56.2138 127.805L54.1739 125.285Z" fill="#C083C9"/>
<path d="M54.1739 125.285C56.8414 122.271 62.0121 115.094 61.3551 110.496C68.4918 109.848 89.0805 102.158 91.3946 100.285M54.1739 125.285L52.9197 123.736L50.6055 125.609L58.7576 135.68L61.0718 133.807L60.4447 133.032M54.1739 125.285C54.6091 125.823 55.3344 126.719 56.2138 127.805M54.1739 125.285L56.2138 127.805M91.3946 100.285C93.7088 98.4117 75.4396 124.741 76.4051 129.088C68.6414 128.962 64.446 128.511 60.4447 133.032M91.3946 100.285L71.6625 116.958M60.4447 133.032C59.6086 131.999 58.7493 130.938 57.9364 129.933M60.4447 133.032L57.9364 129.933M56.2138 127.805L64.699 120.937C64.2762 119.889 63.8933 117.418 65.7447 115.919C68.0588 114.046 70.0844 114.971 71.3385 116.52C71.4484 116.656 71.5571 116.802 71.6625 116.958M56.2138 127.805C56.7422 128.458 57.3262 129.18 57.9364 129.933M56.2138 127.805L57.9364 129.933M57.9364 129.933L66.4216 123.065C67.3058 123.631 69.5371 124.39 71.3884 122.891C73.4999 121.182 72.7608 118.578 71.6625 116.958" stroke="#1F1F22" stroke-width="0.9"/>
<path d="M41.6469 63.6823C41.2955 66.6219 43.1338 71.5589 53.2981 67.7894C63.4625 64.02 61.9482 59.8264 59.9206 58.2007C54.2279 63.2403 47.545 64.1413 41.6469 63.6823Z" fill="#1F1F22"/>
<path d="M41.6469 63.6823C36.2539 63.2626 31.517 61.7058 28.7929 61.1361C22.6575 59.853 13.3618 81.6109 17.0099 108.039C19.9284 129.181 32.3124 116.978 38.1395 108.234C53.7403 92.2964 69.3792 89.7778 84.6247 90.3441C91.1566 91.2078 109.442 98.9134 109.359 88.9222C109.276 78.931 89.0502 59.0911 78.9477 50.4201C77.1765 48.8998 71.2779 45.2384 62.3301 55.7377C61.5514 56.6515 60.7464 57.4697 59.9206 58.2007M41.6469 63.6823C41.2955 66.6219 43.1338 71.5589 53.2981 67.7894C63.4625 64.02 61.9482 59.8264 59.9206 58.2007M41.6469 63.6823C47.545 64.1413 54.2279 63.2403 59.9206 58.2007" stroke="#1F1F22" stroke-width="0.9"/>
<circle cx="27.8637" cy="79.1588" r="5.70319" transform="rotate(-17.7447 27.8637 79.1588)" fill="#C083C9" stroke="#1F1F22" stroke-width="0.9"/>
<circle cx="78.2641" cy="63.0308" r="5.70319" transform="rotate(-17.7447 78.2641 63.0308)" fill="#C083C9" stroke="#1F1F22" stroke-width="0.9"/>
<circle cx="42.2331" cy="81.6671" r="2.6266" transform="rotate(-17.7447 42.2331 81.6671)" fill="#F2D5F6" stroke="#1F1F22" stroke-width="0.9"/>
<circle cx="45.2341" cy="91.0437" r="2.6266" transform="rotate(-17.7447 45.2341 91.0437)" fill="#F2D5F6" stroke="#1F1F22" stroke-width="0.9"/>
<circle cx="37.8738" cy="88.2307" r="2.6266" transform="rotate(-17.7447 37.8738 88.2307)" fill="#F2D5F6" stroke="#1F1F22" stroke-width="0.9"/>
<circle cx="49.5945" cy="84.4801" r="2.6266" transform="rotate(-17.7447 49.5945 84.4801)" fill="#F2D5F6" stroke="#1F1F22" stroke-width="0.9"/>
<circle cx="66.8474" cy="73.7905" r="2.6266" transform="rotate(-17.7447 66.8474 73.7905)" fill="#F2D5F6" stroke="#1F1F22" stroke-width="0.9"/>
<circle cx="69.8484" cy="83.1672" r="2.6266" transform="rotate(-17.7447 69.8484 83.1672)" fill="#F2D5F6" stroke="#1F1F22" stroke-width="0.9"/>
<circle cx="62.487" cy="80.3542" r="2.6266" transform="rotate(-17.7447 62.487 80.3542)" fill="#F2D5F6" stroke="#1F1F22" stroke-width="0.9"/>
<circle cx="74.2077" cy="76.6036" r="2.6266" transform="rotate(-17.7447 74.2077 76.6036)" fill="#F2D5F6" stroke="#1F1F22" stroke-width="0.9"/>
<path fill-rule="evenodd" clip-rule="evenodd" d="M40.1269 26.6254C37.9392 25.3787 35.4007 22.0018 39.8177 18.1292C45.3389 13.2884 63.2367 3.03816 75.7193 16.7333C85.7055 27.6894 75.7802 38.1954 69.5693 42.0788C64.167 45.1474 53.6749 51.2376 38.1863 41.6795C22.6978 32.1213 34.5542 30.0501 42.4184 30.2093C44.3115 30.0096 45.0234 27.2905 40.1269 26.6254ZM42.3507 33.7454C40.2063 34.8026 37.088 37.4123 41.7704 39.3937C47.6235 41.8705 49.2061 33.1767 42.3507 33.7454Z" fill="#F2D5F6" stroke="#1F1F22" stroke-width="0.9"/>
<circle cx="50.7935" cy="20.6352" r="4.10555" transform="rotate(27.6936 50.7935 20.6352)" fill="#C083C9" stroke="#1F1F22" stroke-width="0.9"/>
<circle cx="65.0923" cy="18.8792" r="4.10555" transform="rotate(27.6936 65.0923 18.8792)" fill="#C083C9" stroke="#1F1F22" stroke-width="0.9"/>
<circle cx="64.8111" cy="33.1377" r="4.10555" transform="rotate(27.6936 64.8111 33.1377)" fill="#C083C9" stroke="#1F1F22" stroke-width="0.9"/>
</svg>
