<svg width="113" height="148" viewBox="0 0 113 148" fill="none" xmlns="http://www.w3.org/2000/svg">
<path d="M59 66.5C58.3333 66.1667 56.9 65.7 56.5 66.5C56 67.5 56 68.5 58 68.5C59.6 68.5 59.3333 67.1667 59 66.5Z" fill="#677CE8"/>
<path d="M64.5 87C64.5 88.2 65.1667 88.5 65.5 88.5C67.9 88.5 67.5 86.8333 67 86C66.1667 85.8333 64.5 85.8 64.5 87Z" fill="#677CE8"/>
<path d="M48.5 86C46.1 86.8 46.8333 88.3333 47.5 89C49.9 89.8 50.5 89 50.5 88.5C50.8333 87.3333 50.9 85.2 48.5 86Z" fill="#677CE8"/>
<path d="M38.5 75.5C36.9821 76.006 37.5 77.1667 38 78C41 79 40.5 77 40.5 76.5C40.5 76 40 75 38.5 75.5Z" fill="#677CE8"/>
<path fill-rule="evenodd" clip-rule="evenodd" d="M22.5 44H18.5V48V58.5V69V79V85H31L38 78C37.5 77.1667 36.9821 76.006 38.5 75.5C40 75 40.5 76 40.5 76.5C40.5 77 41 79 38 78L31 85H18.5V89.5V100V104.5H23H33H43.5H54H64.5H69.5V97L65.5 93V88.5C65.1667 88.5 64.5 88.2 64.5 87C64.5 85.8 66.1667 85.8333 67 86C67.5 86.8333 67.9 88.5 65.5 88.5V93L69.5 97V104.5H74.5H79V100V89.5V79V69V58.5V54.5H71.5L59 66.5C59.3333 67.1667 59.6 68.5 58 68.5C56 68.5 56 67.5 56.5 66.5C56.9 65.7 58.3333 66.1667 59 66.5L71.5 54.5H79V48V44H74.5H64.5H54H44H33.5H28V50.5L30.5 53.5V59.5C33 59.5 32 61.5 31.5 61.5C31 61.5 30 62 29.5 61C29.1 60.2 30 59.6667 30.5 59.5V53.5L28 50.5V44H22.5ZM38 97C37.2 94.6 39.6667 94.3333 41 94.5C41.1993 94.5498 41.3645 94.6209 41.5 94.7087L47.5 89C46.8333 88.3333 46.1 86.8 48.5 86C50.9 85.2 50.8333 87.3333 50.5 88.5C50.5 89 49.9 89.8 47.5 89L41.5 94.7087C42.4521 95.3257 41.9377 96.7705 41.5 97.5C40.6667 98.3333 38.8 99.4 38 97Z" fill="#677CE8"/>
<path d="M30.5 59.5C30 59.6667 29.1 60.2 29.5 61C30 62 31 61.5 31.5 61.5C32 61.5 33 59.5 30.5 59.5Z" fill="#677CE8"/>
<path d="M41 94.5C39.6667 94.3333 37.2 94.6 38 97C38.8 99.4 40.6667 98.3333 41.5 97.5C41.9377 96.7705 42.4521 95.3257 41.5 94.7087C41.3645 94.6209 41.1993 94.5498 41 94.5Z" fill="#677CE8"/>
<path d="M22.5 44H18.5V48M22.5 44V33M22.5 44H28M33.5 44V33M33.5 44H44M33.5 44H28M44 44V33M44 44H54M54 44V33M54 44H64.5M64.5 44V33M64.5 44H74.5M74.5 44H79V48M74.5 44V33M28 44V50.5L30.5 53.5V59.5M30.5 59.5C30 59.6667 29.1 60.2 29.5 61C30 62 31 61.5 31.5 61.5C32 61.5 33 59.5 30.5 59.5ZM79 54.5H71.5L59 66.5M79 54.5V48M79 54.5V58.5M59 66.5C58.3333 66.1667 56.9 65.7 56.5 66.5C56 67.5 56 68.5 58 68.5C59.6 68.5 59.3333 67.1667 59 66.5ZM79 48H89M79 58.5H89M79 58.5V69M79 69H89M79 69V79M79 79H89M79 79V89.5M79 89.5H89M79 89.5V100M79 100V104.5H74.5M79 100H89M74.5 104.5V115M74.5 104.5H69.5M64.5 104.5V115M64.5 104.5H54M64.5 104.5H69.5M54 104.5V115M54 104.5H43.5M43.5 104.5V115M43.5 104.5H33M33 104.5V115M33 104.5H23M23 104.5H18.5V100M23 104.5V115M18.5 100H8M18.5 100V89.5M18.5 89.5H8M18.5 89.5V85M18.5 79H8M18.5 79V69M18.5 79V85M18.5 69H8M18.5 69V58.5M18.5 58.5H8M18.5 58.5V48M18.5 48H8M18.5 85H31L38 78M38 78C37.5 77.1667 36.9821 76.006 38.5 75.5C40 75 40.5 76 40.5 76.5C40.5 77 41 79 38 78ZM41.5 94.7087C42.4521 95.3257 41.9377 96.7705 41.5 97.5C40.6667 98.3333 38.8 99.4 38 97C37.2 94.6 39.6667 94.3333 41 94.5C41.1993 94.5498 41.3645 94.6209 41.5 94.7087ZM41.5 94.7087L47.5 89M47.5 89C46.8333 88.3333 46.1 86.8 48.5 86C50.9 85.2 50.8333 87.3333 50.5 88.5C50.5 89 49.9 89.8 47.5 89ZM69.5 104.5V97L65.5 93V88.5M65.5 88.5C65.1667 88.5 64.5 88.2 64.5 87C64.5 85.8 66.1667 85.8333 67 86C67.5 86.8333 67.9 88.5 65.5 88.5Z" stroke="#1F1F22" stroke-width="0.9" stroke-linecap="round"/>
<path d="M68.9364 38.1734C67.4632 39.3623 63.6322 42.9259 63.6322 42.9259C73.4567 45.0142 77.0855 37.0106 76.6749 33.1682C79.5751 31.106 92.3813 25.7061 96.8009 22.1394C100.008 16.2121 95.7947 15.7171 92.804 16.1829L73.7214 27.271C72.8942 26.2691 69.9973 24.7671 65.027 26.7748C60.0567 28.7825 58.8101 33.7397 58.8081 35.9673L65.1598 32.5109L69.2222 33.9918L68.9364 38.1734Z" fill="#C1D5F6"/>
<path fill-rule="evenodd" clip-rule="evenodd" d="M59.237 35.3066L65.1568 32.0852L69.6375 33.7187L69.3214 38.3442L69.1749 38.4625C68.4505 39.047 67.1346 40.2257 65.9905 41.2672C65.4205 41.7861 64.8964 42.268 64.5147 42.6202C64.4922 42.6409 64.4703 42.6612 64.4488 42.681C68.8494 43.4201 71.8368 42.0172 73.7079 40.0238C75.7064 37.8947 76.4721 35.0508 76.2787 33.2401L76.2538 33.0078L76.4579 32.8627C77.2149 32.3244 78.5901 31.5855 80.2612 30.7368C81.2878 30.2154 82.4416 29.6449 83.6525 29.0462C84.4215 28.666 85.2135 28.2744 86.0105 27.8768C90.0981 25.8376 94.3085 23.6434 96.493 21.9057C97.248 20.4927 97.5435 19.4416 97.5517 18.6713C97.5598 17.9046 97.2847 17.4058 96.8607 17.0727C96.4227 16.7285 95.7955 16.5384 95.069 16.4687C94.373 16.4018 93.6161 16.4483 92.9138 16.5527L73.6043 27.7727L73.4025 27.5283C72.6957 26.6722 69.9899 25.1763 65.1524 27.1304C62.7822 28.0878 61.3005 29.7451 60.4055 31.4414C59.6671 32.8409 59.3334 34.2588 59.237 35.3066ZM63.3697 42.6573L63.5378 42.5014C63.6456 42.4014 63.8013 42.2574 63.9926 42.0808C64.3753 41.7276 64.901 41.2443 65.4729 40.7237C66.5415 39.7509 67.783 38.6373 68.551 38.004L68.8065 34.265L65.1625 32.9365L58.4092 36.6115L58.4098 35.9996C58.4108 34.8292 58.736 32.9686 59.7031 31.1358C60.6745 29.2946 62.3012 27.4695 64.9013 26.4192C69.6625 24.496 72.6696 25.68 73.8208 26.7795L92.6931 15.8134L92.7736 15.8009C93.5445 15.6808 94.4046 15.6208 95.2131 15.6984C96.0176 15.7757 96.804 15.9925 97.3923 16.4548C97.9947 16.9281 98.3584 17.6354 98.348 18.6139C98.3378 19.5751 97.9679 20.7844 97.1499 22.2961L97.1084 22.3727L97.0394 22.4285C94.7836 24.2489 90.4273 26.5129 86.3254 28.5592C85.5213 28.9603 84.7267 29.3532 83.957 29.7338C82.7504 30.3303 81.6052 30.8965 80.5817 31.4163C79.0477 32.1954 77.8214 32.8535 77.0913 33.337C77.2206 35.3653 76.3606 38.2966 74.2753 40.5183C72.0762 42.8611 68.5542 44.3752 63.5161 43.3042L62.8309 43.1586L63.3697 42.6573Z" fill="#1F1F22"/>
<path d="M30.1074 125.077C30.2874 124.807 33.3298 124.759 34.2014 124.64L34.1562 119.012L29.7191 119.251L27.7676 117.191L28.9991 114.634L23.0603 112.139L21.947 115.231L19.675 115.786L17.3805 113.528L12.5162 117.255L14.3609 120.187L13.2362 121.872L10.3963 122.566L11.3526 128.253L14.1925 127.559L16.144 129.619L14.4627 132.85L20.0584 135.147L21.5148 132.253L23.6686 131.163L26.0813 133.956L31.2886 130.427L28.876 127.634C29.2115 126.894 29.9275 125.346 30.1074 125.077Z" fill="#C1D5F6"/>
<path fill-rule="evenodd" clip-rule="evenodd" d="M13.9073 133.055L15.6538 129.699L14.0399 127.995L11.0151 128.734L9.92997 122.281L12.9865 121.534L13.879 120.197L11.979 117.177L17.4298 113L19.8191 115.352L21.6362 114.908L22.8255 111.605L29.5417 114.427L28.2521 117.104L29.9058 118.85L34.5634 118.599L34.6147 124.975L34.2402 125.026C33.9288 125.069 33.3548 125.103 32.7462 125.139C32.4655 125.156 32.1775 125.173 31.9044 125.192C31.4594 125.222 31.0476 125.256 30.7392 125.298C30.5895 125.319 30.4768 125.34 30.4013 125.359C30.366 125.423 30.3168 125.517 30.2549 125.64C30.1592 125.831 30.0438 126.07 29.9226 126.325C29.7245 126.743 29.5132 127.2 29.3513 127.554L31.8871 130.49L25.9936 134.484L23.5509 131.656L21.8209 132.532L20.2477 135.657L13.9073 133.055ZM19.8694 134.636L21.209 131.974L23.7866 130.669L26.1693 133.428L30.6905 130.364L28.4011 127.713L28.5007 127.494C28.6691 127.122 28.933 126.548 29.1777 126.032C29.3 125.775 29.4183 125.53 29.5179 125.332C29.6128 125.143 29.7027 124.971 29.7645 124.879C29.8419 124.763 29.954 124.705 30.0071 124.68C30.0727 124.649 30.1428 124.627 30.2065 124.61C30.3352 124.575 30.4935 124.548 30.6619 124.525C31.0018 124.478 31.4389 124.442 31.8859 124.412C32.1921 124.391 32.5008 124.373 32.7917 124.356C33.1683 124.333 33.5152 124.313 33.7884 124.291L33.7493 119.424L29.5327 119.651L27.2834 117.277L28.4567 114.841L23.2955 112.672L22.2581 115.553L19.5313 116.22L17.3314 114.055L13.0537 117.332L14.8431 120.177L13.4863 122.209L10.8629 122.851L11.6904 127.772L14.3455 127.123L16.6345 129.539L15.0184 132.645L19.8694 134.636Z" fill="#1F1F22"/>
<path d="M18.4659 121.157C19.9566 118.924 23.0081 118.177 25.2817 119.49C27.5553 120.803 28.1899 123.677 26.6992 125.91C25.2085 128.143 22.1569 128.89 19.8834 127.577C17.6098 126.264 16.9752 123.39 18.4659 121.157Z" fill="white"/>
<path fill-rule="evenodd" clip-rule="evenodd" d="M24.8318 120.164C22.9372 119.07 20.3943 119.692 19.152 121.553C17.9097 123.414 18.4386 125.809 20.3332 126.903C22.2279 127.997 24.7708 127.375 26.0131 125.514C27.2553 123.653 26.7265 121.258 24.8318 120.164ZM25.2817 119.49C23.0081 118.177 19.9566 118.924 18.4659 121.157C16.9752 123.39 17.6098 126.264 19.8834 127.577C22.1569 128.89 25.2085 128.143 26.6992 125.91C28.1899 123.677 27.5553 120.803 25.2817 119.49Z" fill="#1F1F22"/>
<path d="M54.2814 120.75L54.2814 116.25L54.2814 109.059C54.2814 107.791 54.958 106.619 56.0564 105.985L60.975 103.145L61.3899 102.906L65.3147 100.64L71.975 96.7944C73.0734 96.1603 74.4266 96.1603 75.525 96.7944L79.5872 99.1397L84.525 101.991L91.4436 105.985C92.5419 106.619 93.2186 107.791 93.2186 109.059L93.2186 115.25L93.2186 120.75L93.2186 127.441C93.2186 128.709 92.5419 129.881 91.4436 130.515L85.525 133.932L81.3192 136.36L75.525 139.706C74.4266 140.34 73.0734 140.34 71.975 139.706L65.975 136.241L61.3899 133.594L60.975 133.355L56.0564 130.515C54.958 129.881 54.2814 128.709 54.2814 127.441L54.2814 120.75ZM64.4116 100.122L60.9547 102.118C60.8302 101.601 61.0551 101.04 61.5485 100.766L62.2185 100.393L62.9658 99.9782C63.4436 99.7128 64.0185 99.787 64.4116 100.122ZM84.5143 100.945L80.5059 98.6309C80.9512 98.2608 81.5874 98.1718 82.131 98.4436L83.6671 99.2117C84.3245 99.5403 84.6521 100.261 84.5143 100.945ZM94.1186 115.793C94.5195 115.967 94.8 116.366 94.8 116.831L94.8 119.169C94.8 119.634 94.5195 120.033 94.1186 120.207L94.1186 115.793ZM82.1952 136.894L85.5523 134.956C85.6689 135.431 85.4634 135.95 85.0074 136.203L83.4806 137.052C83.0502 137.291 82.5329 137.209 82.1952 136.894ZM60.9518 134.381L65.0586 136.752C64.5887 137.145 63.9037 137.217 63.3499 136.885L61.5314 135.794C61.033 135.495 60.8145 134.912 60.9518 134.381ZM53.3814 116.793L53.3814 120.207C52.9804 120.033 52.7 119.634 52.7 119.169L52.7 118.5L52.7 117.831C52.7 117.366 52.9804 116.967 53.3814 116.793ZM61.4512 127.848L59.6624 126.953C58.4597 126.352 57.7 125.123 57.7 123.778L57.7 111.665C57.7 110.347 58.4302 109.137 59.5966 108.523L62.2096 107.148L61.7904 106.352L59.1774 107.727C57.7154 108.497 56.8 110.013 56.8 111.665L56.8 123.778C56.8 125.463 57.7523 127.004 59.2599 127.758L61.0488 128.652L61.4512 127.848ZM86.4512 128.652L88.3121 127.722C89.7777 126.989 90.7219 125.51 90.7701 123.873L91.1283 111.696C91.1772 110.033 90.2951 108.482 88.8413 107.675L86.4685 106.357L86.0315 107.143L88.4042 108.462C89.564 109.106 90.2677 110.343 90.2287 111.669L89.8705 123.846C89.8321 125.153 89.0788 126.333 87.9096 126.917L86.0488 127.848L86.4512 128.652Z" fill="#C1D5F6" stroke="#1F1F22" stroke-width="0.9"/>
</svg>
