<svg width="116" height="148" viewBox="0 0 116 148" fill="none" xmlns="http://www.w3.org/2000/svg">
<path d="M11.1225 125.616C10.6968 128.126 11.4318 133.327 17.7768 134.056C24.1219 134.785 26.0171 129.885 26.1716 127.344L27.9826 111.578C22.3392 107.61 15.3476 110.957 12.5571 113.126L11.1225 125.616Z" fill="#73DD44"/>
<path d="M34.2387 57.1122L19.1895 55.3836L12.5571 113.126C15.3476 110.957 22.3392 107.61 27.9826 111.578L34.2387 57.1122Z" fill="white"/>
<path d="M19.6599 51.2884C16.2367 52.3889 17.92 54.4771 19.1895 55.3836L34.2387 57.1122C37.3553 55.8105 35.8508 53.8397 34.709 53.017L19.6599 51.2884Z" fill="white"/>
<path d="M19.1895 55.3836C17.92 54.4771 16.2367 52.3889 19.6599 51.2884M19.1895 55.3836C22.7823 55.7963 30.8221 56.7197 34.2387 57.1122M19.1895 55.3836L12.5571 113.126M19.1895 55.3836L34.2387 57.1122M19.6599 51.2884C23.2392 51.6995 31.184 52.6121 34.709 53.017M19.6599 51.2884L34.709 53.017M34.709 53.017C35.8508 53.8397 37.3553 55.8105 34.2387 57.1122M34.2387 57.1122L27.9826 111.578M12.5571 113.126L11.1225 125.616C10.6968 128.126 11.4318 133.327 17.7768 134.056C24.1219 134.785 26.0171 129.885 26.1716 127.344L27.9826 111.578M12.5571 113.126C15.3476 110.957 22.3392 107.61 27.9826 111.578" stroke="#1F1F22" stroke-width="0.9" stroke-linecap="round"/>
<rect x="37.45" y="11.45" width="74.1" height="99.1" stroke="#1F1F22" stroke-width="0.9"/>
<path d="M33.5991 83.5639C34.2609 86.1639 37.1244 90.8009 43.2846 88.5493C49.4449 86.2976 49.3024 81.2213 48.4612 78.9645L41.8816 57.4841C43.8018 65.1746 34.154 68.3617 29.0901 68.9939L33.5991 83.5639Z" fill="#73DD44"/>
<path d="M11.4805 12.0921C8.74165 14.3205 11.1518 15.6458 12.6992 16.0299L27.7568 11.37C29.7135 9.38366 27.7596 7.91713 26.5381 7.43215L11.4805 12.0921Z" fill="white"/>
<path d="M27.7568 11.37L12.6992 16.0299L29.0901 68.9939C34.154 68.3617 43.8018 65.1746 41.8816 57.4841L27.7568 11.37Z" fill="white"/>
<path d="M12.6992 16.0299C11.1518 15.6458 8.74165 14.3205 11.4805 12.0921M12.6992 16.0299C16.5451 14.8397 24.9408 12.2415 27.7568 11.37M12.6992 16.0299L29.0901 68.9939M12.6992 16.0299L27.7568 11.37M11.4805 12.0921C13.6707 11.4143 22.4315 8.70304 26.5381 7.43215M11.4805 12.0921L26.5381 7.43215M26.5381 7.43215C27.7596 7.91713 29.7135 9.38366 27.7568 11.37M27.7568 11.37L41.8816 57.4841M29.0901 68.9939L33.5991 83.5639C34.2609 86.1639 37.1244 90.8009 43.2846 88.5493C49.4449 86.2976 49.3024 81.2213 48.4612 78.9645L41.8816 57.4841M29.0901 68.9939C34.154 68.3617 43.8018 65.1746 41.8816 57.4841" stroke="#1F1F22" stroke-width="0.9" stroke-linecap="round"/>
<circle cx="74" cy="42" r="23.55" fill="#73DD44" stroke="#1F1F22" stroke-width="0.9"/>
<path d="M65 40L62 44L72.5 53.5L86.5 32.5L82 30L71.5 45.5L65 40Z" fill="white" stroke="#1F1F22" stroke-width="0.9" stroke-linecap="round"/>
<path d="M100.139 102.298C92.6569 107.625 82.1198 105.701 76.61 97.9615C71.1001 90.222 72.7312 79.6357 80.2131 74.3092C87.695 68.9826 98.2322 70.9062 103.742 78.6457C109.252 86.3851 107.621 96.9715 100.139 102.298ZM78.9729 96.2792C83.5012 102.64 92.1912 104.252 98.3889 99.8398C104.587 95.4276 105.907 86.6887 101.379 80.3279C96.8507 73.9671 88.1608 72.3551 81.9631 76.7673C75.7654 81.1795 74.4446 89.9185 78.9729 96.2792Z" fill="#C6F0B3" stroke="#1F1F22" stroke-width="0.9"/>
<path d="M75.8978 97.7357L64.4648 107.342L37.945 130.661C34.7786 136.965 40.1177 136.233 43.1831 135.079L71.2141 110.405C75.3062 106.897 80.7359 102.115 80.2696 101.788C79.6467 101.351 77.0813 99.2161 75.8978 97.7357Z" fill="#C6F0B3" stroke="#1F1F22" stroke-width="0.9"/>
</svg>
