<svg width="116" height="148" viewBox="0 0 116 148" fill="none" xmlns="http://www.w3.org/2000/svg">
<path d="M57.6795 64.9767C55.5838 63.8467 53.4751 63.5368 51.4231 63.8075V80H64.7179V66.1276C62.2192 66.4297 59.8205 66.1312 57.6795 64.9767Z" fill="#F8CFB9"/>
<path d="M91.3077 50.7442C91.3077 48.3721 86.6154 46.7907 87.3974 52.3256C88.0706 52.4617 89.0915 52.5416 89.9213 52.3256C90.6982 52.1234 91.3077 51.6618 91.3077 50.7442Z" fill="#F5A171"/>
<path d="M35 46V77.6279M96 80H89.9213M35 77.6279V80H51.4231M35 77.6279C37.8346 72.7149 44.2861 64.7492 51.4231 63.8075M87.3974 52.3256C86.6154 46.7907 91.3077 48.3721 91.3077 50.7442C91.3077 51.6618 90.6982 52.1234 89.9213 52.3256M87.3974 52.3256C82.7696 57.2081 73.1718 65.1054 64.7179 66.1276M87.3974 52.3256C88.0706 52.4617 89.0915 52.5416 89.9213 52.3256M51.4231 63.8075C53.4751 63.5368 55.5838 63.8467 57.6795 64.9767C59.8205 66.1312 62.2192 66.4297 64.7179 66.1276M51.4231 63.8075V80M51.4231 80H64.7179M64.7179 66.1276V80M64.7179 80H89.9213M89.9213 52.3256V80" stroke="#1F1F22" stroke-width="0.9"/>
<rect x="30.45" y="38.45" width="69.1" height="48.1" stroke="#1F1F22" stroke-width="0.9"/>
<path fill-rule="evenodd" clip-rule="evenodd" d="M45.2494 92.3391C54.1249 90.5478 59.8905 82.1009 58.1273 73.4723C56.3642 64.8438 47.7398 59.3012 38.8644 61.0925C29.9889 62.8838 24.2233 71.3307 25.9865 79.9593C27.7497 88.5878 36.374 94.1304 45.2494 92.3391ZM44.54 88.8673C51.4431 87.474 55.9275 80.9042 54.5561 74.1931C53.1848 67.482 46.477 63.1711 39.5738 64.5643C32.6707 65.9576 28.1863 72.5274 29.5577 79.2385C30.929 85.9496 37.6369 90.2605 44.54 88.8673Z" fill="#F5A171"/>
<path fill-rule="evenodd" clip-rule="evenodd" d="M45.0786 91.5032C53.5174 89.8001 58.9572 81.7839 57.2931 73.6408C55.6291 65.4976 47.4739 60.2253 39.0352 61.9285C30.5965 63.6316 25.1567 71.6478 26.8207 79.791C28.4847 87.9341 36.6399 93.2064 45.0786 91.5032ZM55.3904 74.0248C56.8609 81.2212 52.0507 88.2219 44.7108 89.7033C37.371 91.1847 30.194 86.6034 28.7235 79.4069C27.2529 72.2105 32.0632 65.2098 39.403 63.7284C46.7429 62.247 53.9198 66.8284 55.3904 74.0248ZM58.1274 73.4724C59.8906 82.1009 54.1249 90.5479 45.2495 92.3392C36.374 94.1305 27.7497 88.5878 25.9865 79.9593C24.2233 71.3308 29.989 62.8838 38.8644 61.0925C47.7399 59.3012 56.3642 64.8439 58.1274 73.4724ZM54.5562 74.1932C55.9275 80.9042 51.4431 87.4741 44.54 88.8673C37.6369 90.2606 30.9291 85.9496 29.5577 79.2386C28.1863 72.5275 32.6707 65.9576 39.5739 64.5644C46.477 63.1711 53.1848 67.4821 54.5562 74.1932Z" fill="#1F1F22"/>
<path d="M50.1879 90.1358C49.5818 90.4998 46.0647 92.101 44.1443 92.4888L56.867 133.202C61.0345 136.94 62.4406 133.182 62.6226 130.835L50.1879 90.1358Z" fill="#F5A171"/>
<path fill-rule="evenodd" clip-rule="evenodd" d="M50.4348 89.4891L63.0529 130.789L63.0467 130.869C62.9988 131.486 62.8706 132.199 62.6331 132.865C62.3974 133.526 62.0415 134.175 61.516 134.625C60.9739 135.088 60.2722 135.319 59.4205 135.158C58.5922 135.001 57.6536 134.479 56.583 133.519L56.4953 133.441L43.5966 92.1638L44.0584 92.0706C44.9752 91.8855 46.3021 91.4023 47.4949 90.909C48.6897 90.4148 49.6943 89.9338 49.9676 89.7697L50.4348 89.4891ZM44.6869 92.8003L57.2373 132.962C58.2093 133.817 58.9809 134.207 59.5763 134.32C60.1661 134.432 60.6087 134.277 60.9618 133.975C61.3315 133.659 61.6218 133.163 61.8311 132.576C62.0289 132.021 62.1434 131.417 62.1911 130.88L49.9312 90.7528C49.431 91.0001 48.6606 91.3505 47.8221 91.6973C46.7978 92.1209 45.6311 92.5564 44.6869 92.8003Z" fill="#1F1F22"/>
<path d="M44.9155 29.1795C44.8221 28.4597 44.6334 26.9241 44.6263 26.5395L47.4752 24.5672L44.9914 20.2817L42.1336 21.7734L39.9391 20.1278L40.6024 16.9907C39.0696 16.4559 35.908 15.388 35.5234 15.3946C35.1388 15.4012 34.4432 17.6573 34.1434 18.7845L31.5037 19.0702C31.0868 18.1957 30.204 16.3995 30.0081 16.2105C29.8123 16.0215 26.9084 17.6261 25.481 18.4521L26.7407 21.5563C26.1932 22.287 25.0509 23.7973 24.8622 23.9929C24.6734 24.1885 22.8487 23.4664 21.9599 23.0809L20.1258 27.9212L23.7537 29.0612L24.043 31.7012L20.7133 33.6818L23.4419 38.2035L27.2612 36.6954L28.975 38.3491L28.5565 41.7225L32.674 43.3351C33.2156 42.2839 34.2899 39.7007 34.2899 39.7007C34.2899 39.7007 36.204 39.187 37.1655 39.1705L38.9148 42.7472L43.4331 40.0249C43.0918 38.9087 42.3603 36.629 42.1645 36.44C41.9197 36.2037 43.3352 34.7368 43.5711 34.4923C43.8071 34.2478 46.7093 35.1599 46.9542 35.3961C47.199 35.6324 48.3164 31.0447 48.3075 30.564C48.3004 30.1794 46.0432 29.4807 44.9155 29.1795Z" fill="#F8CFB9"/>
<path fill-rule="evenodd" clip-rule="evenodd" d="M43.8353 40.1795L38.7723 43.23L36.9584 39.5213C36.5254 39.5554 35.9505 39.6626 35.4396 39.774C35.1443 39.8383 34.8783 39.9023 34.6862 39.9501C34.6302 39.964 34.5806 39.9766 34.5383 39.9874C34.5093 40.0566 34.4714 40.1468 34.4264 40.2533C34.317 40.5126 34.1654 40.8693 33.9967 41.259C33.661 42.0348 33.2527 42.9537 32.9759 43.4911L32.8355 43.7635L28.1861 41.9426L28.6162 38.4755L27.1825 37.092L23.2992 38.6254L20.2451 33.5642L23.6808 31.5205L23.4395 29.3189L19.6797 28.1374L21.7676 22.6272L22.0944 22.769C22.5342 22.9597 23.204 23.233 23.7838 23.4335C24.0753 23.5342 24.334 23.613 24.5258 23.655C24.5918 23.6694 24.6434 23.678 24.6817 23.6823C24.8113 23.5266 25.0805 23.1811 25.3964 22.7684C25.7235 22.3409 26.0846 21.8629 26.353 21.5056L25.0544 18.3056L25.31 18.1577C26.0263 17.7432 27.1141 17.1328 28.0494 16.6487C28.5159 16.4072 28.951 16.1938 29.2852 16.0518C29.4506 15.9816 29.6025 15.924 29.726 15.8905C29.7862 15.8742 29.8553 15.8591 29.9233 15.8558C29.9673 15.8537 30.1214 15.848 30.2436 15.966C30.3013 16.0216 30.3562 16.1037 30.3982 16.1699C30.4466 16.2463 30.5022 16.3414 30.562 16.4483C30.6819 16.6624 30.8259 16.9365 30.9753 17.2289C31.2285 17.7244 31.5011 18.2808 31.7058 18.7062L33.8755 18.4714C34.0288 17.916 34.2506 17.1811 34.482 16.5516C34.6135 16.1939 34.7524 15.8583 34.8879 15.6069C34.9549 15.4827 35.0288 15.3642 35.1095 15.2719C35.1748 15.1972 35.3133 15.0582 35.5167 15.0547C35.614 15.053 35.7466 15.0804 35.866 15.1084C36.0001 15.1398 36.1672 15.1848 36.3567 15.2392C36.7365 15.3483 37.2198 15.4992 37.7361 15.6661C38.7695 16.0002 39.9457 16.4018 40.7136 16.6697L40.9966 16.7684L40.3162 19.9863L42.1654 21.3728L45.1218 19.8297L47.9262 24.6684L44.9755 26.7112C45.0115 27.1903 45.1374 28.2349 45.2234 28.9111C45.7796 29.0652 46.5171 29.2886 47.1486 29.5215C47.5064 29.6535 47.8423 29.7928 48.0939 29.9287C48.2182 29.9958 48.3367 30.0698 48.4292 30.1507C48.504 30.2161 48.6432 30.3547 48.647 30.5582C48.6488 30.6572 48.6253 30.8149 48.5963 30.9789C48.5651 31.1559 48.5202 31.3783 48.466 31.6277C48.3576 32.1268 48.21 32.7426 48.0544 33.3356C47.8993 33.927 47.7344 34.5029 47.5913 34.9193C47.5208 35.1242 47.4505 35.3059 47.3842 35.4332C47.3545 35.4904 47.309 35.5701 47.2449 35.6316C47.2138 35.6614 47.146 35.7188 47.0431 35.7384C46.9204 35.7617 46.8076 35.7208 46.729 35.651C46.726 35.649 46.7203 35.6455 46.7113 35.6404C46.688 35.6273 46.6537 35.6099 46.6071 35.5887C46.5142 35.5464 46.3883 35.4956 46.2373 35.4396C45.9361 35.328 45.5511 35.2021 45.1649 35.0905C44.7776 34.9786 44.3979 34.8837 44.1055 34.8319C43.9578 34.8057 43.8441 34.7927 43.7676 34.7912C43.7633 34.7911 43.7592 34.791 43.7554 34.791C43.5928 34.9604 43.248 35.3246 42.9493 35.686C42.7758 35.8959 42.6287 36.092 42.541 36.2421C42.5219 36.2749 42.5078 36.3018 42.4976 36.3232L42.4993 36.3262C42.5226 36.3655 42.5455 36.4101 42.5676 36.4564C42.612 36.5494 42.6613 36.6667 42.7133 36.7987C42.8176 37.0637 42.94 37.4071 43.0656 37.7754C43.3172 38.513 43.5865 39.3657 43.7578 39.9259L43.8353 40.1795ZM34.2895 39.7007L34.201 39.3723L34.2071 39.3707L34.2239 39.3662L34.2877 39.3495C34.3429 39.3352 34.4226 39.3148 34.521 39.2903C34.7178 39.2413 34.9905 39.1757 35.2939 39.1096C35.8911 38.9795 36.6403 38.8395 37.1588 38.8306L37.3753 38.8269L39.0566 42.2644L43.0295 39.8706C42.862 39.3301 42.6352 38.6191 42.422 37.9941C42.2976 37.6293 42.1791 37.2975 42.0806 37.047C42.0311 36.9213 41.9884 36.8208 41.954 36.7485C41.9367 36.7123 41.9235 36.6875 41.9143 36.6721C41.9134 36.6705 41.9126 36.6692 41.9119 36.668C41.7621 36.5081 41.7922 36.3059 41.8146 36.2159C41.842 36.106 41.8971 35.9956 41.9537 35.8986C42.07 35.6996 42.2456 35.4693 42.4249 35.2524C42.786 34.8155 43.206 34.3803 43.325 34.257L43.3259 34.256C43.4132 34.1656 43.5217 34.1371 43.5793 34.1259C43.6465 34.1128 43.7164 34.1101 43.78 34.1113C43.9083 34.1138 44.062 34.1338 44.2234 34.1624C44.5492 34.2202 44.9546 34.3222 45.3529 34.4373C45.7524 34.5527 46.1536 34.6838 46.4728 34.802C46.6162 34.8551 46.7463 34.9069 46.8538 34.9545C46.882 34.8838 46.9136 34.7979 46.9482 34.6974C47.0831 34.305 47.243 33.7482 47.3967 33.1622C47.55 32.5777 47.6953 31.9713 47.8015 31.4824C47.8547 31.2378 47.8976 31.0248 47.9267 30.8598C47.9413 30.7772 47.952 30.7089 47.9588 30.656C47.9593 30.6521 47.9598 30.6482 47.9603 30.6445C47.9208 30.614 47.8593 30.5743 47.7714 30.5269C47.5625 30.4141 47.2623 30.2879 46.914 30.1594C46.2211 29.9039 45.3858 29.657 44.8278 29.5079L44.6073 29.449L44.578 29.2228C44.4861 28.5152 44.2935 26.9541 44.2859 26.5453L44.2825 26.3634L47.0233 24.4659L44.8602 20.7337L42.101 22.1739L39.5611 20.2694L40.2073 17.2133C39.4546 16.9526 38.4349 16.6064 37.5277 16.3131C37.014 16.147 36.5389 15.9988 36.1698 15.8928C35.9849 15.8397 35.83 15.7981 35.7116 15.7703C35.6647 15.7593 35.628 15.7517 35.6003 15.7463C35.5704 15.7858 35.532 15.8459 35.4866 15.9301C35.3741 16.1389 35.2483 16.4389 35.1203 16.787C34.8657 17.4795 34.6199 18.3145 34.4716 18.8723L34.4117 19.0974L31.3004 19.4341L31.1964 19.2161C30.9888 18.7807 30.6653 18.1159 30.3699 17.5376C30.222 17.2481 30.0825 16.9829 29.9688 16.7798C29.921 16.6946 29.8791 16.6225 29.8438 16.5652C29.7695 16.5894 29.6719 16.6267 29.5517 16.6778C29.2417 16.8094 28.8249 17.0133 28.3626 17.2526C27.545 17.6758 26.6052 18.1991 25.907 18.5991L27.1275 21.6068L27.0125 21.7603C26.7383 22.1263 26.3151 22.6875 25.9366 23.1821C25.5675 23.6643 25.2184 24.1133 25.1066 24.2291C25.0306 24.3079 24.9402 24.338 24.8825 24.3509C24.8216 24.3645 24.7616 24.3668 24.7111 24.3655C24.6099 24.3629 24.4955 24.3441 24.3815 24.3192C24.1503 24.2687 23.8618 24.1796 23.5624 24.0761C23.093 23.9138 22.5719 23.7075 22.1522 23.5321L20.5711 27.705L24.067 28.8036L24.4043 31.8818L21.1807 33.7993L23.5838 37.7816L27.3391 36.2987L29.3329 38.2227L28.926 41.5024L32.5078 42.9052C32.7622 42.381 33.0895 41.6424 33.3726 40.9883C33.5402 40.6009 33.691 40.2461 33.7999 39.9881C33.8544 39.8592 33.8983 39.7545 33.9286 39.6821L33.9754 39.5702L34.2895 39.7007ZM35.6429 15.6988C35.6429 15.6988 35.6407 15.7011 35.6364 15.7042C35.6408 15.7 35.6429 15.6988 35.6429 15.6988ZM48.003 30.6835C48.003 30.6835 48.0007 30.6813 47.9976 30.677C48.0018 30.6814 48.003 30.6835 48.003 30.6835ZM41.9074 36.6611L41.9083 36.6623L41.9074 36.6611ZM34.2895 39.7007L33.9754 39.5702L34.0397 39.4156L34.201 39.3723L34.2895 39.7007Z" fill="#1F1F22"/>
<path d="M30.0832 33.2808C27.6494 30.9322 27.5777 27.058 29.9231 24.6275C32.2685 22.197 36.1428 22.1306 38.5766 24.4792C41.0104 26.8278 41.0821 30.702 38.7367 33.1325C36.3913 35.563 32.517 35.6294 30.0832 33.2808Z" fill="white"/>
<path fill-rule="evenodd" clip-rule="evenodd" d="M30.4128 25.1C28.328 27.2604 28.3917 30.7042 30.5551 32.7918C32.7184 34.8794 36.1623 34.8204 38.2471 32.66C40.3318 30.4995 40.2681 27.0558 38.1048 24.9682C35.9414 22.8805 32.4975 22.9396 30.4128 25.1ZM29.9231 24.6275C27.5777 27.058 27.6494 30.9322 30.0832 33.2808C32.517 35.6294 36.3913 35.563 38.7367 33.1325C41.0821 30.702 41.0104 26.8278 38.5766 24.4792C36.1428 22.1306 32.2685 22.197 29.9231 24.6275Z" fill="#1F1F22"/>
<path d="M62.1136 31.2187C62.3824 31.1668 64.1003 33.0399 64.6585 33.5123L68.1616 30.0509L65.5505 27.4219L65.7597 24.9445L68.0456 24.155L66.3158 18.919L63.76 20.1087L62.1516 19.0268L62.2946 16.2141L57.2601 15.4456L56.445 18.388L54.765 18.7124L52.7544 17.36L49.7196 21.4273L51.7301 22.7797L51.5209 25.257L48.5631 26.1763L50.2268 31.077L52.8487 30.2226L54.727 30.9043L54.314 34.1172L59.4147 35.2211L59.8277 32.0082C60.4776 31.7667 61.8448 31.2706 62.1136 31.2187Z" fill="#F8CFB9"/>
<path fill-rule="evenodd" clip-rule="evenodd" d="M48.1267 25.954L51.1993 24.9991L51.3723 22.9503L49.2308 21.5098L52.6745 16.8947L54.8384 18.3503L56.1715 18.0929L57.011 15.0622L62.6527 15.9234L62.5037 18.8522L63.7902 19.7175L66.5202 18.4466L68.4765 24.3683L66.0826 25.1951L65.9054 27.2944L68.6461 30.054L64.6775 33.9756L64.4377 33.7726C64.2382 33.6038 63.8985 33.2657 63.5383 32.9071C63.3721 32.7417 63.2016 32.5721 63.0385 32.4126C62.7727 32.1528 62.5228 31.9162 62.3253 31.749C62.2295 31.6679 62.154 31.61 62.0998 31.5747C62.0402 31.5916 61.9539 31.6182 61.8423 31.6547C61.6697 31.7112 61.456 31.7846 61.2287 31.8646C60.8571 31.9954 60.4533 32.1421 60.1414 32.2571L59.7074 35.6338L53.9346 34.3845L54.3527 31.1316L52.844 30.584L50.0118 31.507L48.1267 25.954ZM50.4423 30.6473L52.8539 29.8614L55.1019 30.6773L54.694 33.8502L59.1227 34.8087L59.5145 31.7599L59.7075 31.6882C60.0338 31.567 60.54 31.3818 60.999 31.2203C61.2284 31.1396 61.4475 31.0642 61.6271 31.0055C61.7982 30.9495 61.9554 30.9013 62.0478 30.8834C62.1634 30.8611 62.262 30.8958 62.3071 30.9138C62.3627 30.936 62.4156 30.9662 62.4616 30.9957C62.5547 31.0551 62.6597 31.1374 62.7675 31.2287C62.9852 31.4129 63.25 31.6644 63.5171 31.9254C63.7 32.1042 63.8826 32.286 64.0548 32.4575C64.2777 32.6794 64.483 32.8838 64.6484 33.0412L67.6776 30.048L65.1963 27.5496L65.4374 24.6943L67.6153 23.9421L66.112 19.3915L63.7305 20.5001L61.8 19.2016L61.9372 16.505L57.5097 15.8292L56.7191 18.6834L54.6922 19.0748L52.835 17.8255L50.2089 21.345L52.0886 22.6094L51.8432 25.5152L49.0001 26.3988L50.4423 30.6473Z" fill="#1F1F22"/>
<path d="M58.1142 21.5471C60.341 21.1171 62.5014 22.5703 62.9396 24.7929C63.3777 27.0155 61.9278 29.1659 59.7009 29.5958C57.4741 30.0258 55.3137 28.5726 54.8756 26.35C54.4374 24.1274 55.8874 21.9771 58.1142 21.5471Z" fill="white"/>
<path fill-rule="evenodd" clip-rule="evenodd" d="M62.2676 24.9227C61.9024 23.0705 60.1021 21.8595 58.2464 22.2178C56.3908 22.5761 55.1824 24.3681 55.5476 26.2203C55.9127 28.0724 57.713 29.2834 59.5687 28.9251C61.4244 28.5668 62.6327 26.7749 62.2676 24.9227ZM62.9396 24.7929C62.5014 22.5703 60.341 21.1171 58.1142 21.5471C55.8874 21.9771 54.4374 24.1274 54.8756 26.35C55.3137 28.5726 57.4741 30.0258 59.7009 29.5958C61.9278 29.1659 63.3777 27.0155 62.9396 24.7929Z" fill="#1F1F22"/>
<circle cx="80.2788" cy="116.792" r="4.55" transform="rotate(-63.3779 80.2788 116.792)" fill="#F8CFB9" stroke="#1F1F22" stroke-width="0.9"/>
<circle cx="77.1802" cy="85.0365" r="4.55" transform="rotate(-63.3779 77.1802 85.0365)" fill="#F5A171" stroke="#1F1F22" stroke-width="0.9"/>
<circle cx="108.917" cy="99.826" r="4.55" transform="rotate(-63.3779 108.917 99.826)" fill="#F8CFB9" stroke="#1F1F22" stroke-width="0.9"/>
<path d="M79.1658 112.318L78.2941 89.5096M81.6515 86.1589L105.567 96.4686" stroke="#1F1F22" stroke-width="0.9"/>
</svg>
