<svg width="113" height="148" viewBox="0 0 113 148" fill="none" xmlns="http://www.w3.org/2000/svg">
<path d="M59 66.5C58.3333 66.1667 56.9 65.7 56.5 66.5C56 67.5 56 68.5 58 68.5C59.6 68.5 59.3333 67.1667 59 66.5Z" fill="#677CE8"/>
<path d="M64.5 87C64.5 88.2 65.1667 88.5 65.5 88.5C67.9 88.5 67.5 86.8333 67 86C66.1667 85.8333 64.5 85.8 64.5 87Z" fill="#677CE8"/>
<path d="M48.5 86C46.1 86.8 46.8333 88.3333 47.5 89C49.9 89.8 50.5 89 50.5 88.5C50.8333 87.3333 50.9 85.2 48.5 86Z" fill="#677CE8"/>
<path d="M38.5 75.5C36.9821 76.006 37.5 77.1667 38 78C41 79 40.5 77 40.5 76.5C40.5 76 40 75 38.5 75.5Z" fill="#677CE8"/>
<path fill-rule="evenodd" clip-rule="evenodd" d="M22.5 44H18.5V48V58.5V69V79V85H31L38 78C37.5 77.1667 36.9821 76.006 38.5 75.5C40 75 40.5 76 40.5 76.5C40.5 77 41 79 38 78L31 85H18.5V89.5V100V104.5H23H33H43.5H54H64.5H69.5V97L65.5 93V88.5C65.1667 88.5 64.5 88.2 64.5 87C64.5 85.8 66.1667 85.8333 67 86C67.5 86.8333 67.9 88.5 65.5 88.5V93L69.5 97V104.5H74.5H79V100V89.5V79V69V58.5V54.5H71.5L59 66.5C59.3333 67.1667 59.6 68.5 58 68.5C56 68.5 56 67.5 56.5 66.5C56.9 65.7 58.3333 66.1667 59 66.5L71.5 54.5H79V48V44H74.5H64.5H54H44H33.5H28V50.5L30.5 53.5V59.5C33 59.5 32 61.5 31.5 61.5C31 61.5 30 62 29.5 61C29.1 60.2 30 59.6667 30.5 59.5V53.5L28 50.5V44H22.5ZM38 97C37.2 94.6 39.6667 94.3333 41 94.5C41.1993 94.5498 41.3645 94.6209 41.5 94.7087L47.5 89C46.8333 88.3333 46.1 86.8 48.5 86C50.9 85.2 50.8333 87.3333 50.5 88.5C50.5 89 49.9 89.8 47.5 89L41.5 94.7087C42.4521 95.3257 41.9377 96.7705 41.5 97.5C40.6667 98.3333 38.8 99.4 38 97Z" fill="#677CE8"/>
<path d="M30.5 59.5C30 59.6667 29.1 60.2 29.5 61C30 62 31 61.5 31.5 61.5C32 61.5 33 59.5 30.5 59.5Z" fill="#677CE8"/>
<path d="M41 94.5C39.6667 94.3333 37.2 94.6 38 97C38.8 99.4 40.6667 98.3333 41.5 97.5C41.9377 96.7705 42.4521 95.3257 41.5 94.7087C41.3645 94.6209 41.1993 94.5498 41 94.5Z" fill="#677CE8"/>
<path d="M22.5 44H18.5V48M22.5 44V33M22.5 44H28M33.5 44V33M33.5 44H44M33.5 44H28M44 44V33M44 44H54M54 44V33M54 44H64.5M64.5 44V33M64.5 44H74.5M74.5 44H79V48M74.5 44V33M28 44V50.5L30.5 53.5V59.5M30.5 59.5C30 59.6667 29.1 60.2 29.5 61C30 62 31 61.5 31.5 61.5C32 61.5 33 59.5 30.5 59.5ZM79 54.5H71.5L59 66.5M79 54.5V48M79 54.5V58.5M59 66.5C58.3333 66.1667 56.9 65.7 56.5 66.5C56 67.5 56 68.5 58 68.5C59.6 68.5 59.3333 67.1667 59 66.5ZM79 48H89M79 58.5H89M79 58.5V69M79 69H89M79 69V79M79 79H89M79 79V89.5M79 89.5H89M79 89.5V100M79 100V104.5H74.5M79 100H89M74.5 104.5V115M74.5 104.5H69.5M64.5 104.5V115M64.5 104.5H54M64.5 104.5H69.5M54 104.5V115M54 104.5H43.5M43.5 104.5V115M43.5 104.5H33M33 104.5V115M33 104.5H23M23 104.5H18.5V100M23 104.5V115M18.5 100H8M18.5 100V89.5M18.5 89.5H8M18.5 89.5V85M18.5 79H8M18.5 79V69M18.5 79V85M18.5 69H8M18.5 69V58.5M18.5 58.5H8M18.5 58.5V48M18.5 48H8M18.5 85H31L38 78M38 78C37.5 77.1667 36.9821 76.006 38.5 75.5C40 75 40.5 76 40.5 76.5C40.5 77 41 79 38 78ZM41.5 94.7087C42.4521 95.3257 41.9377 96.7705 41.5 97.5C40.6667 98.3333 38.8 99.4 38 97C37.2 94.6 39.6667 94.3333 41 94.5C41.1993 94.5498 41.3645 94.6209 41.5 94.7087ZM41.5 94.7087L47.5 89M47.5 89C46.8333 88.3333 46.1 86.8 48.5 86C50.9 85.2 50.8333 87.3333 50.5 88.5C50.5 89 49.9 89.8 47.5 89ZM69.5 104.5V97L65.5 93V88.5M65.5 88.5C65.1667 88.5 64.5 88.2 64.5 87C64.5 85.8 66.1667 85.8333 67 86C67.5 86.8333 67.9 88.5 65.5 88.5Z" stroke="#1F1F22" stroke-width="0.9" stroke-linecap="round"/>
<path d="M65.5073 28.6369C63.6359 28.3507 58.4212 27.9246 58.4212 27.9246C63.5038 36.5878 71.8609 33.8705 74.4215 30.9764C77.8999 31.7275 90.5228 37.5431 96.1368 38.4017C102.677 36.7733 100.201 33.328 97.8403 31.4336L76.7847 24.8189C76.9668 23.5324 76.1225 20.3804 71.2885 18.0639C66.4544 15.7474 61.9532 18.1694 60.3068 19.67L67.1422 22.0298L68.7879 26.0283L65.5073 28.6369Z" fill="#C1D5F6"/>
<path fill-rule="evenodd" clip-rule="evenodd" d="M61.0842 19.5415L67.4548 21.7407L69.2699 26.151L65.641 29.0366L65.4549 29.0081C64.5348 28.8674 62.7771 28.6905 61.2365 28.5479C60.4689 28.4769 59.7597 28.4147 59.2422 28.3704C59.2118 28.3678 59.182 28.3652 59.1529 28.3627C61.5745 32.1107 64.6248 33.3708 67.3585 33.4084C70.2784 33.4485 72.8948 32.0963 74.1015 30.7325L74.2563 30.5575L74.501 30.6103C75.409 30.8064 76.882 31.3236 78.6355 31.9853C79.7128 32.3919 80.9121 32.8592 82.1707 33.3497C82.97 33.6612 83.7932 33.982 84.6243 34.3025C88.8864 35.9459 93.3459 37.5756 96.102 38.017C97.6546 37.6217 98.63 37.1311 99.2043 36.6178C99.7761 36.1068 99.9588 35.5672 99.919 35.0296C99.8778 34.474 99.5951 33.8827 99.1568 33.2992C98.7369 32.7401 98.1921 32.2125 97.6415 31.7643L76.3355 25.0709L76.3799 24.757C76.5356 23.6578 75.8157 20.6511 71.1107 18.3965C68.8055 17.2918 66.5825 17.3151 64.7264 17.798C63.195 18.1965 61.9229 18.9061 61.0842 19.5415ZM58.4428 27.5499L58.6712 27.5689C58.8177 27.5811 59.0291 27.5989 59.2885 27.6211C59.8073 27.6656 60.5187 27.7279 61.2888 27.7992C62.7277 27.9323 64.3872 28.0982 65.3727 28.2383L68.3061 25.9057L66.83 22.319L59.5624 19.8101L60.0146 19.3979C60.8796 18.6095 62.4728 17.595 64.4784 17.0732C66.4931 16.5491 68.9377 16.5196 71.4665 17.7315C76.0972 19.9505 77.2507 22.9695 77.215 24.561L98.0386 31.1029L98.1021 31.1538C98.7106 31.6422 99.3349 32.2368 99.8228 32.8862C100.308 33.5324 100.678 34.2593 100.734 35.0054C100.79 35.7695 100.513 36.515 99.7837 37.1671C99.0671 37.8077 97.9246 38.35 96.2567 38.7653L96.1721 38.7863L96.0844 38.7729C93.219 38.3347 88.6097 36.6444 84.3326 34.9951C83.4943 34.6719 82.6683 34.35 81.8683 34.0382C80.6141 33.5494 79.4238 33.0856 78.3498 32.6803C76.7401 32.0729 75.4272 31.611 74.5779 31.3979C73.1673 32.8611 70.4227 34.2026 67.376 34.1608C64.1631 34.1167 60.6701 32.5367 58.0637 28.0942L57.7092 27.49L58.4428 27.5499Z" fill="#1F1F22"/>
<path d="M15.2734 118.917C14.9877 119.07 12.2812 117.68 11.4561 117.374L8.84503 122.36L12.8716 124.239L13.6226 126.976L11.3319 128.651L15.3952 133.65L17.8337 131.447L20.0994 132.027L21.0597 135.1L27.1061 134.104L26.8601 130.648L28.6458 129.692L31.478 130.417L33.3134 124.95L30.4811 124.225L29.7302 121.488L32.7351 119.43L28.8812 114.768L26.2334 116.635L23.8198 116.582L23.0074 112.982L16.7516 113.642L17.5641 117.242C16.9196 117.737 15.5591 118.764 15.2734 118.917Z" fill="#C1D5F6"/>
<path fill-rule="evenodd" clip-rule="evenodd" d="M33.3216 119.511L30.2002 121.649L30.8212 123.912L33.8378 124.684L31.7553 130.888L28.7071 130.107L27.29 130.866L27.5434 134.425L20.7679 135.542L19.768 132.342L17.9558 131.878L15.3511 134.231L10.7558 128.578L13.1547 126.824L12.5183 124.505L8.29159 122.532L11.2497 116.884L11.6041 117.015C11.8989 117.124 12.4213 117.365 12.9752 117.619C13.2306 117.737 13.4927 117.857 13.7424 117.97C14.1492 118.153 14.5286 118.316 14.8205 118.424C14.9622 118.477 15.0713 118.512 15.1472 118.53C15.2084 118.49 15.2962 118.43 15.4088 118.351C15.5831 118.228 15.7973 118.072 16.0245 117.903C16.3959 117.628 16.7976 117.325 17.1073 117.088L16.2534 113.304L23.3335 112.557L24.156 116.203L26.0946 116.245L28.9548 114.229L33.3216 119.511ZM28.8073 115.308L26.3719 117.025L23.4834 116.962L22.6811 113.406L17.2496 113.979L18.0205 117.396L17.8291 117.542C17.5056 117.791 17.0024 118.173 16.5437 118.512C16.3144 118.682 16.0947 118.842 15.9134 118.97C15.7407 119.092 15.5807 119.201 15.4826 119.254C15.3597 119.319 15.2335 119.318 15.1748 119.315C15.1026 119.311 15.0302 119.298 14.966 119.283C14.8362 119.253 14.6836 119.202 14.5242 119.143C14.2025 119.024 13.8001 118.85 13.3914 118.666C13.1115 118.54 12.8306 118.411 12.5658 118.289C12.2231 118.132 11.9075 117.986 11.6561 117.877L9.39821 122.188L13.2247 123.974L14.0902 127.128L11.9078 128.724L15.4391 133.068L17.7113 131.016L20.4306 131.712L21.3512 134.658L26.6686 133.782L26.43 130.43L28.5843 129.276L31.2005 129.946L32.7887 125.215L30.1408 124.538L29.26 121.327L32.1483 119.35L28.8073 115.308Z" fill="#1F1F22"/>
<path d="M23.6959 127.859C21.329 129.126 18.2858 128.347 16.8986 126.118C15.5114 123.89 16.3055 121.055 18.6724 119.787C21.0393 118.52 24.0826 119.299 25.4698 121.528C26.857 123.757 26.0628 126.591 23.6959 127.859Z" fill="white"/>
<path fill-rule="evenodd" clip-rule="evenodd" d="M17.6128 125.736C18.7688 127.593 21.3049 128.243 23.2773 127.186C25.2497 126.13 25.9115 123.768 24.7555 121.91C23.5995 120.053 21.0634 119.404 19.091 120.46C17.1186 121.516 16.4568 123.878 17.6128 125.736ZM16.8986 126.118C18.2858 128.347 21.329 129.126 23.6959 127.859C26.0628 126.591 26.857 123.757 25.4698 121.528C24.0826 119.299 21.0393 118.52 18.6724 119.787C16.3055 121.055 15.5114 123.89 16.8986 126.118Z" fill="#1F1F22"/>
<path d="M70.5 99.5314L75 99.5314L82.1906 99.5314C83.4589 99.5314 84.6308 100.208 85.265 101.306L88.1047 106.225L88.3443 106.64L90.6103 110.565L94.4556 117.225C95.0897 118.323 95.0897 119.677 94.4556 120.775L92.1103 124.837L89.2594 129.775L85.265 136.694C84.6308 137.792 83.4589 138.469 82.1906 138.469L76 138.469L70.5 138.469L63.8094 138.469C62.5411 138.469 61.3692 137.792 60.735 136.694L57.3179 130.775L54.8897 126.569L51.5444 120.775C50.9103 119.677 50.9103 118.323 51.5444 117.225L55.0085 111.225L56.4519 108.725L57.6557 106.64L57.8953 106.225L60.735 101.306C61.3692 100.208 62.5411 99.5314 63.8094 99.5314L70.5 99.5314ZM91.1281 109.662L89.1323 106.205C89.6486 106.08 90.2103 106.305 90.4844 106.798L90.8566 107.469L91.2718 108.216C91.5372 108.694 91.463 109.268 91.1281 109.662ZM90.3049 129.764L92.6191 125.756C92.9892 126.201 93.0782 126.837 92.8064 127.381L92.0383 128.917C91.7097 129.574 90.9887 129.902 90.3049 129.764ZM75.457 139.369C75.283 139.77 74.8835 140.05 74.4186 140.05L72.0814 140.05C71.6165 140.05 71.217 139.77 71.043 139.369L75.457 139.369ZM54.3562 127.445L56.2944 130.802C55.8193 130.919 55.3 130.713 55.0467 130.257L54.1984 128.731C53.9594 128.3 54.0406 127.783 54.3562 127.445ZM55.6725 108.275L54.4984 110.309C54.1051 109.839 54.0325 109.154 54.3648 108.6L55.456 106.781C55.755 106.283 56.338 106.065 56.8694 106.202L55.6725 108.275ZM74.457 98.6314L71.043 98.6314C71.217 98.2304 71.6165 97.95 72.0814 97.95L72.75 97.95L73.4186 97.95C73.8835 97.95 74.283 98.2304 74.457 98.6314ZM63.4025 106.701L64.2969 104.912C64.8983 103.71 66.1275 102.95 67.4721 102.95L79.5851 102.95C80.9031 102.95 82.1127 103.68 82.7265 104.847L84.1018 107.46L84.8982 107.04L83.523 104.427C82.7535 102.965 81.2373 102.05 79.5851 102.05L67.4721 102.05C65.7866 102.05 64.2457 103.002 63.4919 104.51L62.5975 106.299L63.4025 106.701ZM62.5975 131.701L63.528 133.562C64.2607 135.028 65.7395 135.972 67.3773 136.02L79.5543 136.378C81.2167 136.427 82.7675 135.545 83.5752 134.091L84.8934 131.719L84.1066 131.281L82.7884 133.654C82.1441 134.814 80.9069 135.518 79.5808 135.479L67.4038 135.121C66.0972 135.082 64.9175 134.329 64.3329 133.16L63.4025 131.299L62.5975 131.701Z" fill="#C1D5F6" stroke="#1F1F22" stroke-width="0.9"/>
</svg>
